<?xml version="1.0" standalone="no"?>
<!DOCTYPE svg PUBLIC "-//W3C//DTD SVG 1.1//EN" "http://www.w3.org/Graphics/SVG/1.1/DTD/svg11.dtd" >
<svg>
<metadata>
Created by FontForge 20110222 at Fri Sep  5 22:10:05 2014
 By deploy user
Copyright 1990-1993 Bitstream Inc.  All rights reserved.
</metadata>
<defs>
<font id="ZurichBT-ExtraCondensed" horiz-adv-x="2371" >
  <font-face 
    font-family="Zurich XCn BT"
    font-weight="400"
    font-stretch="condensed"
    units-per-em="2048"
    panose-1="2 11 5 8 3 7 2 6 2 4"
    ascent="1638"
    descent="-410"
    x-height="1028"
    cap-height="1475"
    bbox="-342 -483 2048 1888"
    underline-thickness="135"
    underline-position="-128"
    unicode-range="U+0020-F002"
  />
<missing-glyph horiz-adv-x="1888" 
d="M118 0v1888h1652v-1888h-1652zM1652 118v1652h-1416v-1652h1416z" />
    <glyph glyph-name=".notdef" horiz-adv-x="1888" 
d="M118 0v1888h1652v-1888h-1652zM1652 118v1652h-1416v-1652h1416z" />
    <glyph glyph-name=".null" horiz-adv-x="0" 
 />
    <glyph glyph-name="nonmarkingreturn" horiz-adv-x="360" 
 />
    <glyph glyph-name="space" unicode=" " horiz-adv-x="360" 
 />
    <glyph glyph-name="exclam" unicode="!" horiz-adv-x="471" 
d="M147 201h177v-201h-177v201zM141 1475h189l-29 -1104h-133z" />
    <glyph glyph-name="quotedbl" unicode="&#x22;" horiz-adv-x="590" 
d="M496 1434v-553h-119v553h119zM211 1434v-553h-117v553h117z" />
    <glyph glyph-name="numbersign" unicode="#" horiz-adv-x="1575" 
d="M973 862h-264l-95 -272h263zM922 1456l-166 -471h260l168 471h143l-164 -471h307l-43 -123h-311l-94 -272h330l-43 -123h-332l-166 -469h-145l168 469h-265l-168 -469h-143l166 469h-320l43 123h320l96 272h-342l43 123h344l168 471h146z" />
    <glyph glyph-name="dollar" unicode="$" horiz-adv-x="723" 
d="M297 1579h115v-154q113 -15 156.5 -74t43.5 -206v-101h-178v113q0 78 -18 110.5t-62 32.5q-45 0 -64.5 -32t-19.5 -107v-63q0 -38 15 -78t55 -100l205 -302q48 -71 66 -123t18 -116v-82q0 -144 -51 -215q-26 -36 -67 -57t-95 -21v-188h-115v186q-114 12 -161.5 73
t-47.5 208v120h178v-129q0 -44 4.5 -69.5t15.5 -43.5q21 -32 68 -32q50 0 70.5 32.5t20.5 119.5v71q0 39 -12.5 72.5t-51.5 87.5l-200 296l-9 13q-84 120 -84 234v61q0 158 46.5 226t158.5 81v156z" />
    <glyph glyph-name="percent" unicode="%" horiz-adv-x="1065" 
d="M877 516q0 50 -13 69t-45 19q-30 0 -42.5 -19t-12.5 -69v-350q0 -49 12 -69.5t43 -20.5q32 0 45 19.5t13 70.5v350zM1001 496v-310q0 -117 -39.5 -163t-142.5 -46q-98 0 -140 45q-20 23 -30 63t-10 101v310q0 118 39.5 163.5t142.5 45.5q98 0 139 -46t41 -163zM428 1237
v-307q0 -120 -41 -165.5t-141 -45.5t-141.5 46t-41.5 165v307q0 120 41 165.5t144 45.5q99 0 139.5 -46.5t40.5 -164.5zM301 1257q0 51 -12.5 71t-42.5 20t-45 -21q-13 -23 -13 -70v-350q0 -48 13.5 -68t44.5 -20q29 0 43 18q12 18 12 70v350zM729 1450h100l-491 -1475h-100
z" />
    <glyph glyph-name="ampersand" unicode="&#x26;" horiz-adv-x="850" 
d="M459 684q-97 0 -129.5 -32.5t-32.5 -133.5v-205q0 -98 33 -134q34 -34 129 -34h67v539h-67zM426 1475h127v-148h-92q-89 0 -119.5 -32t-30.5 -134v-164q0 -99 30.5 -132.5t119.5 -33.5h65v216h185v-216h106v-147h-106v-684h-299q-172 0 -241 55.5t-69 190.5v295
q0 102 47 154.5t150 64.5q-96 12 -139 64.5t-43 156.5v248q0 134 69 190t240 56z" />
    <glyph glyph-name="quotesingle" unicode="'" horiz-adv-x="305" 
d="M211 1434v-553h-117v553h117z" />
    <glyph glyph-name="parenleft" unicode="(" horiz-adv-x="479" 
d="M307 1497h121q-70 -248 -107 -476q-16 -106 -25 -213t-9 -202q0 -198 34.5 -419t106.5 -472h-121q-93 243 -140.5 466t-47.5 425q0 106 11 208.5t36 217.5q47 222 141 465z" />
    <glyph glyph-name="parenright" unicode=")" horiz-adv-x="479" 
d="M51 1497h121q94 -243 143 -470q23 -108 35 -214t12 -207q0 -104 -11 -205t-36 -216q-47 -224 -143 -470h-121q73 267 108.5 485.5t35.5 405.5q0 100 -8 195t-27 209q-33 219 -109 487z" />
    <glyph glyph-name="asterisk" unicode="*" horiz-adv-x="565" 
d="M203 1497l82 -197l75 197l109 -63l-131 -166l211 30v-127l-209 33l129 -168l-109 -63l-79 198l-78 -198l-109 63l131 164l-211 -29v127l211 -30l-131 166z" />
    <glyph glyph-name="plus" unicode="+" horiz-adv-x="1706" 
d="M913 1221v-551h539v-117h-539v-553h-118v553h-541v117h541v551h118z" />
    <glyph glyph-name="comma" unicode="," horiz-adv-x="360" 
d="M98 201h189l-115 -371h-137z" />
    <glyph glyph-name="hyphen" unicode="-" horiz-adv-x="422" 
d="M57 618h308v-190h-308v190z" />
    <glyph glyph-name="period" unicode="." horiz-adv-x="360" 
d="M92 201h176v-201h-176v201z" />
    <glyph glyph-name="slash" unicode="/" horiz-adv-x="362" 
d="M266 1497h121l-328 -1687h-118z" />
    <glyph glyph-name="zero" unicode="0" horiz-adv-x="723" 
d="M627 1085v-743q0 -209 -59.5 -288t-209.5 -79q-144 0 -203 80t-59 287v743q0 209 59.5 287t209.5 78q144 0 203 -79.5t59 -285.5zM442 1137q0 105 -17.5 144.5t-62.5 39.5t-63 -39.5t-18 -144.5v-846q0 -108 17.5 -146.5t61.5 -38.5q45 0 63.5 39.5t18.5 145.5v846z" />
    <glyph glyph-name="one" unicode="1" horiz-adv-x="723" 
d="M289 1427h166v-1427h-179v1196q-31 -29 -70 -55q-15 -9 -36.5 -20t-46.5 -21v180q49 24 92 63q40 34 74 84z" />
    <glyph glyph-name="two" unicode="2" horiz-adv-x="723" 
d="M625 1133v-68q0 -102 -70 -255l-6 -13l-293 -650h373v-147h-549v186l280 620l9 19q71 154 71 246v78q0 92 -18 132t-60 40q-46 0 -64.5 -38t-18.5 -146v-82h-185v55q0 192 61.5 266t215.5 74q136 0 195 -72.5t59 -244.5z" />
    <glyph glyph-name="three" unicode="3" horiz-adv-x="723" 
d="M608 1124v-186q0 -82 -30 -128t-95 -62q72 -18 102 -64q15 -23 23 -56.5t8 -80.5v-221q0 -196 -59 -273.5t-203 -77.5q-147 0 -207.5 74.5t-60.5 265.5v72h184v-96q0 -104 18 -144.5t64 -40.5q44 0 62 39t18 146v252q0 75 -28 103t-101 28h-35v149h35q71 0 97 26t26 99
v189q0 112 -17 147q-15 37 -59 37q-41 0 -58.5 -40t-17.5 -144v-66h-182v53q0 183 58.5 254.5t203.5 71.5q138 0 196 -73.5t58 -252.5z" />
    <glyph glyph-name="four" unicode="4" horiz-adv-x="723" 
d="M375 1290l-170 -794h168l16 794h-14zM289 1427h254v-931h131v-140h-131v-356h-172v356h-310v168z" />
    <glyph glyph-name="five" unicode="5" horiz-adv-x="723" 
d="M104 1427h490v-145h-311v-444q28 37 68.5 56t90.5 19q98 0 141.5 -60.5t43.5 -209.5v-317q0 -192 -58.5 -271.5t-197.5 -79.5q-147 0 -211 74.5t-64 249.5v80h185v-94q0 -104 17 -141.5t60 -37.5q45 0 63.5 39.5t18.5 145.5v325q0 89 -18.5 123.5t-63.5 34.5
q-39 0 -57 -33.5t-18 -109.5v-31h-179v827z" />
    <glyph glyph-name="six" unicode="6" horiz-adv-x="723" 
d="M444 567q0 104 -17.5 144.5t-59.5 40.5q-45 0 -62.5 -39t-17.5 -146v-276q0 -106 17 -145.5t61 -39.5q42 0 60.5 40.5t18.5 144.5v276zM623 1124v-69h-185v82q0 109 -17 146q-15 38 -59 38q-41 0 -59 -37q-16 -38 -16 -147v-314q28 33 65 49.5t78 16.5q107 0 154 -66
t47 -223v-258q0 -212 -58 -289.5t-208 -77.5q-145 0 -204 80t-59 287v743q0 210 58.5 287.5t204.5 77.5q138 0 198 -75t60 -251z" />
    <glyph glyph-name="seven" unicode="7" horiz-adv-x="723" 
d="M61 1427h539v-159l-235 -1268h-189l246 1282h-361v145z" />
    <glyph glyph-name="eight" unicode="8" horiz-adv-x="723" 
d="M279 508v-238q0 -97 17.5 -130.5t61.5 -33.5q47 0 67 36q19 38 19 128v238q0 92 -18 129t-64 37q-45 0 -64 -34t-19 -132zM281 1155v-174q0 -98 17 -132t60 -34q44 0 65 37q19 40 19 129v174q0 92 -19 129t-63 37q-43 0 -62 -35q-17 -36 -17 -131zM250 748
q-82 24 -117 78t-35 151v147q0 177 61.5 251.5t205.5 74.5q138 0 199 -76t61 -250v-147q0 -96 -35 -150t-117 -79q82 -25 118 -80t36 -160v-205q0 -178 -62 -253t-207 -75q-140 0 -201 76t-61 252v205q0 106 35.5 159.5t118.5 80.5z" />
    <glyph glyph-name="nine" unicode="9" horiz-adv-x="723" 
d="M621 1085v-745q0 -207 -57.5 -286t-205.5 -79q-138 0 -198 75t-60 253v76h185v-88q0 -109 16.5 -148t58.5 -39q41 0 58.5 38.5t17.5 148.5v311q-29 -32 -67 -50q-36 -15 -82 -15q-104 0 -149.5 66.5t-45.5 223.5v258q0 210 59 287.5t209 77.5q143 0 202 -79t59 -286z
M436 1135q0 104 -17.5 145t-60.5 41t-62 -40q-17 -40 -17 -146v-275q0 -106 17.5 -146t59.5 -40q44 0 62 39t18 147v275z" />
    <glyph glyph-name="colon" unicode=":" horiz-adv-x="403" 
d="M115 201h176v-201h-176v201zM115 1028h176v-201h-176v201z" />
    <glyph glyph-name="semicolon" unicode=";" horiz-adv-x="403" 
d="M119 201h188l-114 -371h-140zM115 1028h176v-201h-176v201z" />
    <glyph glyph-name="less" unicode="&#x3c;" horiz-adv-x="1706" 
d="M1442 1018l-1000 -408l1000 -405v-129l-1178 483v103l1178 483v-127z" />
    <glyph glyph-name="equal" unicode="=" horiz-adv-x="1706" 
d="M1452 477v-117h-1198v117h1198zM1452 860v-117h-1198v117h1198z" />
    <glyph glyph-name="greater" unicode="&#x3e;" horiz-adv-x="1706" 
d="M1442 662v-103l-1178 -483v129l1000 405l-1000 408v127z" />
    <glyph glyph-name="question" unicode="?" horiz-adv-x="672" 
d="M236 201h174v-201h-174v201zM561 1239v-92q0 -51 -11 -102t-34 -105l-84 -195q-11 -25 -19 -72q-3 -22 -5 -46t-2 -49v-207h-166v192q0 88 12 152.5t37 122.5l55 131q8 18 15 38t14 47q4 19 7 40.5t3 38.5v110q0 66 -17 94.5t-55 28.5q-41 0 -57 -32t-16 -126v-94h-172
v107q0 149 59 212.5t199 63.5q124 0 180.5 -61t56.5 -197z" />
    <glyph glyph-name="at" unicode="@" horiz-adv-x="2048" 
d="M1292 844l58 121h110l-141 -568l-9 -44l-3 -36q0 -43 27.5 -66.5t82.5 -23.5q44 0 99 24t104 64q88 75 139 195.5t51 255.5q0 265 -195.5 427.5t-518.5 162.5q-169 0 -312.5 -51.5t-259.5 -153.5q-139 -121 -210.5 -282t-71.5 -355q0 -172 60 -303t187 -231
q99 -80 240 -124q69 -22 141.5 -33t153.5 -11q172 0 334.5 48.5t296.5 139.5l45 -66q-147 -108 -313 -164.5t-347 -56.5q-194 0 -349 46t-275 139q-154 118 -228.5 272.5t-74.5 351.5q0 82 12 158t38 151q50 144 150 269q146 176 350.5 267t452.5 91q167 0 311.5 -43
t247.5 -125q130 -100 196 -231t66 -281q0 -168 -62 -307.5t-183 -237.5q-70 -55 -150 -83.5t-162 -28.5q-98 0 -148 39.5t-50 115.5l1 11l1 12q-51 -87 -126.5 -132.5t-170.5 -45.5q-153 0 -233.5 85t-80.5 247q0 230 137 389t332 159q91 0 153 -39.5t97 -117.5zM1202 473
l60 242q-16 89 -71.5 139.5t-135.5 50.5q-145 0 -243.5 -131.5t-98.5 -327.5q0 -108 51 -168.5t145 -60.5q103 0 183 69.5t110 186.5z" />
    <glyph glyph-name="A" unicode="A" horiz-adv-x="760" 
d="M379 1315l-105 -791h205l-92 791h-8zM258 1475h258l223 -1475h-192l-47 375h-246l-55 -375h-181z" />
    <glyph glyph-name="B" unicode="B" horiz-adv-x="784" 
d="M293 696v-551h41q96 0 129 34.5t33 137.5v209q0 101 -32.5 135.5t-129.5 34.5h-41zM293 1327v-485h39q86 0 117.5 33.5t31.5 130.5v159q0 98 -30.5 130t-118.5 32h-39zM111 1475h256q172 0 240.5 -56t68.5 -190v-238q0 -102 -42.5 -154t-139.5 -67q101 -12 148.5 -64
t47.5 -153v-307q0 -135 -68 -191q-34 -27 -93.5 -41t-147.5 -14h-270v1475z" />
    <glyph glyph-name="C" unicode="C" horiz-adv-x="723" 
d="M664 1180v-111h-191v100q0 53 -4 85t-15 54q-18 40 -61 40q-52 0 -74 -40q-20 -40 -20 -167v-807q0 -130 19.5 -168.5t70.5 -38.5q44 0 65 37q19 40 19 133v133h193v-135q0 -180 -62 -250t-219 -70q-152 0 -215.5 84.5t-63.5 311.5v733q0 226 62.5 309.5t220.5 83.5
q152 0 213.5 -69.5t61.5 -247.5z" />
    <glyph glyph-name="D" unicode="D" horiz-adv-x="793" 
d="M301 1323v-1171h39q92 0 123 32t31 129v848q0 98 -32 130q-30 32 -122 32h-39zM111 1475h200q226 0 300.5 -79t74.5 -331v-655q0 -249 -74.5 -329.5t-300.5 -80.5h-200v1475z" />
    <glyph glyph-name="E" unicode="E" horiz-adv-x="633" 
d="M111 1475h440v-156h-250v-471h238v-156h-238v-536h264v-156h-454v1475z" />
    <glyph glyph-name="F" unicode="F" horiz-adv-x="596" 
d="M111 1475h440v-156h-250v-481h236v-156h-236v-682h-190v1475z" />
    <glyph glyph-name="G" unicode="G" horiz-adv-x="797" 
d="M694 1137v-70h-190v74q0 121 -23 164t-82 43q-55 0 -77.5 -44t-22.5 -163v-807q0 -122 24 -166q24 -41 87 -41l39 3q10 1 25 4t29 7l1 451h-103v151h293v-708q-78 -30 -150 -45t-143 -15q-162 0 -228.5 85.5t-66.5 310.5v733q0 221 64.5 307t220.5 86q168 0 235.5 -78.5
t67.5 -281.5z" />
    <glyph glyph-name="H" unicode="H" horiz-adv-x="809" 
d="M111 1475h190v-635h207v635h190v-1475h-190v690h-207v-690h-190v1475z" />
    <glyph glyph-name="I" unicode="I" horiz-adv-x="418" 
d="M113 1475h194v-1475h-194v1475z" />
    <glyph glyph-name="J" unicode="J" horiz-adv-x="653" 
d="M358 1475h191v-1123q0 -215 -60.5 -295t-212.5 -80q-141 0 -200.5 67.5t-59.5 236.5v153h191v-139q0 -93 15.5 -126.5t56.5 -33.5q44 0 61.5 37t17.5 160v1143z" />
    <glyph glyph-name="K" unicode="K" horiz-adv-x="698" 
d="M111 1475h182v-666l199 666h178l-203 -660l223 -815h-184l-213 776v-776h-182v1475z" />
    <glyph glyph-name="L" unicode="L" horiz-adv-x="573" 
d="M111 1475h190v-1319h270v-156h-460v1475z" />
    <glyph glyph-name="M" unicode="M" horiz-adv-x="1090" 
d="M111 1475h290l140 -1252h10l145 1252h283v-1475h-160v1311h-20l-154 -1311h-211l-149 1311h-19v-1311h-155v1475z" />
    <glyph glyph-name="N" unicode="N" horiz-adv-x="838" 
d="M111 1475h251l216 -1340h8l-19 1340h160v-1475h-254l-211 1327h-10l18 -1327h-159v1475z" />
    <glyph glyph-name="O" unicode="O" horiz-adv-x="803" 
d="M696 1104v-733q0 -228 -65.5 -312t-233.5 -84q-160 0 -225.5 85.5t-65.5 310.5v733q0 227 65.5 310t234.5 83q161 0 225.5 -84.5t64.5 -308.5zM504 1141q0 121 -22.5 164t-80.5 43q-56 0 -80 -42q-22 -42 -22 -165v-807q0 -125 22.5 -166t79.5 -41q56 0 79.5 42.5
t23.5 164.5v807z" />
    <glyph glyph-name="P" unicode="P" horiz-adv-x="696" 
d="M293 1327v-547h33q77 0 105 35.5t28 140.5v197q0 105 -28 139.5t-105 34.5h-33zM111 1475h219q178 0 249.5 -60.5t71.5 -206.5v-307q0 -142 -71 -205t-234 -63h-53v-633h-182v1475z" />
    <glyph glyph-name="Q" unicode="Q" horiz-adv-x="807" 
d="M299 1141v-807q0 -125 22.5 -166t79.5 -41q56 0 79.5 42.5t23.5 164.5v807q0 125 -23 165q-21 42 -80 42q-56 0 -80 -43q-22 -44 -22 -164zM106 1104q0 227 65.5 310t234.5 83q161 0 225.5 -85t64.5 -308v-733q0 -126 -20.5 -177.5t-71.5 -80.5l2 -7q20 11 34.5 16.5
t41.5 12.5q43 10 78 10h26v-145q-43 0 -80 -2q-131 -7 -152 -7l-157 -9q-166 0 -228.5 80.5t-62.5 308.5v733z" />
    <glyph glyph-name="R" unicode="R" horiz-adv-x="782" 
d="M293 1327v-496h39q86 0 117.5 33.5t31.5 134.5v160q0 103 -30.5 135.5t-118.5 32.5h-39zM111 1475h256q172 0 240.5 -56t68.5 -190v-238q0 -114 -46.5 -166t-160.5 -65q56 0 97.5 -17t67.5 -46q48 -54 48 -183v-514h-195v516q0 105 -29.5 136.5t-121.5 31.5h-43v-684
h-182v1475z" />
    <glyph glyph-name="S" unicode="S" horiz-adv-x="696" 
d="M623 1208v-129h-191v142q0 73 -17 100q-15 29 -57 29q-45 0 -63.5 -32t-18.5 -124v-72q0 -77 78 -187l181 -259q56 -81 75 -140t19 -128v-97q0 -168 -72.5 -252t-218.5 -84t-207 66t-61 231v146h194v-150q0 -77 18 -110q19 -31 64 -31q50 0 69 35t19 137v86q0 81 -75 194
l-5 7l-190 276q-41 58 -59.5 110.5t-18.5 106.5v103q0 157 71.5 236t213.5 79q132 0 192 -66.5t60 -222.5z" />
    <glyph glyph-name="T" unicode="T" horiz-adv-x="594" 
d="M23 1475h548v-156h-178v-1319h-192v1319h-178v156z" />
    <glyph glyph-name="U" unicode="U" horiz-adv-x="801" 
d="M109 1475h192v-1141q0 -123 21.5 -165t78.5 -42q53 0 77 42q22 44 22 165v1141h194v-1104q0 -226 -65.5 -311t-233.5 -85q-159 0 -222.5 84.5t-63.5 311.5v1104z" />
    <glyph glyph-name="V" unicode="V" horiz-adv-x="688" 
d="M25 1475h188l137 -1246h15l129 1246h168l-189 -1475h-244z" />
    <glyph glyph-name="W" unicode="W" horiz-adv-x="1100" 
d="M37 1475h182l80 -1207h16l119 1207h236l112 -1207h15l96 1207h170l-170 -1475h-221l-125 1282h-10l-129 -1282h-224z" />
    <glyph glyph-name="X" unicode="X" horiz-adv-x="666" 
d="M27 1475h194l125 -562l119 562h172l-193 -719l213 -756h-194l-139 594l-138 -594h-178l213 754z" />
    <glyph glyph-name="Y" unicode="Y" horiz-adv-x="643" 
d="M2 1475h195l131 -654h12l121 654h180l-227 -861v-614h-191v614z" />
    <glyph glyph-name="Z" unicode="Z" horiz-adv-x="582" 
d="M55 1475h490v-179l-328 -1146h336v-150h-518v190l327 1135h-307v150z" />
    <glyph glyph-name="bracketleft" unicode="[" horiz-adv-x="479" 
d="M156 1475h278v-115h-121v-1507h121v-115h-278v1737z" />
    <glyph glyph-name="backslash" unicode="\" horiz-adv-x="362" 
d="M-25 1497h121l326 -1687h-121z" />
    <glyph glyph-name="bracketright" unicode="]" horiz-adv-x="479" 
d="M45 1475h279v-1737h-279v115h121v1507h-121v115z" />
    <glyph glyph-name="asciicircum" unicode="^" horiz-adv-x="2048" 
d="M1104 1458l520 -557h-158l-442 438l-442 -438h-160l520 557h162z" />
    <glyph glyph-name="underscore" unicode="_" horiz-adv-x="1024" 
d="M1024 -365v-118h-1024v118h1024z" />
    <glyph glyph-name="grave" unicode="`" horiz-adv-x="1024" 
d="M324 1403h170l86 -240h-117z" />
    <glyph glyph-name="a" unicode="a" horiz-adv-x="690" 
d="M415 524q-46 0 -76 -8.5t-49 -25.5q-32 -29 -32 -103v-131q0 -82 18 -116t62 -34q42 0 60 33t18 117zM598 776v-776h-172l-10 84q-31 -53 -74 -81t-94 -28q-91 0 -132.5 60.5t-41.5 195.5v177q0 123 77 179q41 29 107 46.5t158 17.5v119q0 93 -17 123.5t-61 30.5
q-39 0 -57.5 -30.5t-18.5 -98.5v-43h-168v24q0 154 57.5 215.5t198.5 61.5q135 0 191.5 -62t56.5 -215z" />
    <glyph glyph-name="b" unicode="b" horiz-adv-x="696" 
d="M426 766q0 84 -17 114.5t-59 30.5t-60 -32.5t-18 -112.5v-502q0 -79 18 -113t60 -34t59 32t17 115v502zM92 1475h180v-529q30 51 73.5 79t92.5 28q89 0 130.5 -59.5t41.5 -196.5v-566q0 -137 -40 -196.5t-134 -59.5q-48 0 -90 27t-74 82l-8 -84h-172v1475z" />
    <glyph glyph-name="c" unicode="c" horiz-adv-x="655" 
d="M590 750v-60h-182v84q0 86 -16 117q-8 15 -21.5 23t-34.5 8q-34 0 -50 -32q-14 -33 -14 -120v-512q0 -89 15 -121.5t53 -32.5q36 0 51 30.5t15 123.5v100h184v-79q0 -154 -62 -228t-190 -74q-141 0 -196.5 75t-55.5 276v372q0 202 57 277.5t197 75.5q128 0 189 -74.5
t61 -228.5z" />
    <glyph glyph-name="d" unicode="d" horiz-adv-x="696" 
d="M424 766q0 82 -17 113.5t-59 31.5t-60 -31.5t-18 -113.5v-502q0 -85 17 -116t59 -31t60 33t18 114v502zM424 1475h182v-1475h-172l-10 84q-15 -26 -33.5 -46.5t-41 -34.5t-43.5 -21t-48 -7q-90 0 -130 60.5t-40 195.5v566q0 138 39.5 197t132.5 59q48 0 90.5 -27.5
t73.5 -79.5v529z" />
    <glyph glyph-name="e" unicode="e" horiz-adv-x="698" 
d="M612 700v-239h-340v-203q0 -89 18 -121.5t62 -32.5q42 0 60 33.5t18 120.5v88h182v-67q0 -156 -62.5 -229t-199.5 -73q-147 0 -205.5 75t-58.5 276v372q0 202 58.5 277.5t207.5 75.5q144 0 202 -76t58 -277zM430 772q0 87 -17.5 121.5t-60.5 34.5q-42 0 -62 -33
q-18 -33 -18 -123v-186h158v186z" />
    <glyph glyph-name="f" unicode="f" horiz-adv-x="383" 
d="M385 1497v-129h-23q-47 0 -64 -15.5t-17 -60.5v-264h94v-129h-94v-899h-181v899h-71v129h71v193q0 174 45 226t172 52l41 -1z" />
    <glyph glyph-name="g" unicode="g" horiz-adv-x="696" 
d="M424 766q0 81 -17.5 114t-58.5 33q-42 0 -60 -32.5t-18 -114.5v-457q0 -85 17 -116t59 -31t60 33t18 114v457zM424 946l10 82h172v-1124q0 -171 -57.5 -239t-202.5 -68q-134 0 -196 64t-62 204v43h184v-41q0 -75 16.5 -107t53.5 -32q45 0 63.5 34.5t18.5 116.5v250
q-29 -51 -72 -80q-43 -26 -94 -26q-89 0 -129.5 57.5t-40.5 195.5v523q0 137 39.5 195.5t132.5 58.5q48 0 90.5 -27.5t73.5 -79.5z" />
    <glyph glyph-name="h" unicode="h" horiz-adv-x="702" 
d="M92 1475h180v-529q33 52 77 79.5t95 27.5q91 0 128.5 -57t37.5 -203v-793h-182v766q0 82 -17.5 113.5t-60.5 31.5q-42 0 -60 -32.5t-18 -112.5v-766h-180v1475z" />
    <glyph glyph-name="i" unicode="i" horiz-adv-x="365" 
d="M92 1028h180v-1028h-180v1028zM86 1475h193v-185h-193v185z" />
    <glyph glyph-name="j" unicode="j" horiz-adv-x="365" 
d="M92 1028h180v-1147q0 -182 -42.5 -234.5t-163.5 -52.5l-42 1q-17 0 -26 2v131h18q42 0 59 17t17 60v1223zM86 1475h193v-185h-193v185z" />
    <glyph glyph-name="k" unicode="k" horiz-adv-x="635" 
d="M92 1475h178v-883l183 436h165l-188 -444l207 -584h-178l-189 553v-553h-178v1475z" />
    <glyph glyph-name="l" unicode="l" horiz-adv-x="365" 
d="M92 1475h180v-1475h-180v1475z" />
    <glyph glyph-name="m" unicode="m" horiz-adv-x="1004" 
d="M582 938q39 59 82 87t90 28q87 0 122 -55.5t35 -204.5v-793h-178v766q0 81 -15.5 113t-53.5 32t-56 -34q-16 -35 -16 -111v-766h-180v766q0 83 -16 114t-52 31q-39 0 -56.5 -34t-17.5 -111v-766h-178v1028h172l8 -82q33 54 74.5 80.5t95.5 26.5q51 0 91 -32.5t49 -82.5z
" />
    <glyph glyph-name="n" unicode="n" horiz-adv-x="702" 
d="M610 793v-793h-182v766q0 82 -17.5 113.5t-60.5 31.5q-42 0 -60 -32.5t-18 -112.5v-766h-180v1028h172l8 -82q33 52 77 79.5t95 27.5q91 0 128.5 -57t37.5 -203z" />
    <glyph glyph-name="o" unicode="o" horiz-adv-x="698" 
d="M612 700v-372q0 -201 -58 -277t-208 -76q-144 0 -202 76t-58 277v372q0 202 58.5 277.5t207.5 75.5q143 0 201.5 -77t58.5 -276zM428 770q0 86 -17.5 119t-60.5 33q-41 0 -61 -33q-17 -32 -17 -119v-512q0 -91 17.5 -122.5t60.5 -31.5q42 0 60 33.5t18 120.5v512z" />
    <glyph glyph-name="p" unicode="p" horiz-adv-x="696" 
d="M426 766q0 84 -17 114.5t-59 30.5t-60 -32.5t-18 -112.5v-502q0 -79 18 -113t60 -34t59 32t17 115v502zM610 797v-566q0 -137 -40 -196.5t-134 -59.5q-48 0 -90 27t-74 82v-473h-180v1417h172l8 -82q30 51 73.5 79t92.5 28q89 0 130.5 -59.5t41.5 -196.5z" />
    <glyph glyph-name="q" unicode="q" horiz-adv-x="696" 
d="M424 766q0 78 -17.5 112.5t-58.5 34.5q-42 0 -60 -32.5t-18 -114.5v-502q0 -84 17.5 -115.5t58.5 -31.5q42 0 60 33t18 114v502zM424 946l8 82h174v-1417h-182v473q-29 -50 -72 -78.5t-94 -28.5q-91 0 -131.5 59.5t-40.5 194.5v568q0 137 40.5 195.5t133.5 58.5
q48 0 90.5 -27.5t73.5 -79.5z" />
    <glyph glyph-name="r" unicode="r" horiz-adv-x="449" 
d="M453 1042v-157h-9q-93 0 -134 -42q-38 -43 -38 -149v-694h-180v1028h172l8 -84q33 51 73.5 75.5t84.5 24.5l11 -1z" />
    <glyph glyph-name="s" unicode="s" horiz-adv-x="633" 
d="M553 780v-49h-174v53q0 89 -14 114q-12 26 -50 26q-33 0 -49 -25q-14 -25 -14 -80v-39q0 -23 18.5 -55.5t57.5 -75.5l147 -155q47 -50 70 -96q10 -22 16 -44t6 -45v-82q0 -127 -62 -189.5t-190 -62.5q-134 0 -187.5 61t-53.5 222v70h168v-82q0 -44 3 -70.5t11 -42.5
q14 -29 51 -29q42 0 62 27q18 27 18 92v39q0 36 -18.5 72.5t-55.5 75.5l-143 149q-60 65 -78 105.5t-18 91.5v59q0 118 62.5 178t182.5 60q126 0 180 -63t54 -210z" />
    <glyph glyph-name="t" unicode="t" horiz-adv-x="426" 
d="M289 1300v-272h106v-129h-106v-678q0 -57 16.5 -78.5t56.5 -21.5h15l26 4v-141l-13 -2l-89 -7q-111 0 -153 57t-42 224v643h-81v129h81v201z" />
    <glyph glyph-name="u" unicode="u" horiz-adv-x="702" 
d="M90 1028h182v-764q0 -85 17 -116q19 -31 61 -31t60 33t18 114v764h182v-1028h-174l-8 84q-33 -52 -76 -79.5t-96 -27.5q-91 0 -128.5 56.5t-37.5 202.5v792z" />
    <glyph glyph-name="v" unicode="v" horiz-adv-x="569" 
d="M20 1028h175l88 -846h10l98 846h158l-154 -1028h-219z" />
    <glyph glyph-name="w" unicode="w" horiz-adv-x="985" 
d="M27 1028h166l88 -848h8l102 848h219l95 -848h10l90 848h156l-146 -1028h-215l-98 879h-15l-106 -879h-209z" />
    <glyph glyph-name="x" unicode="x" horiz-adv-x="588" 
d="M43 1028h182l82 -352l84 352h166l-154 -491l160 -537h-184l-98 399l-103 -399h-162l170 537z" />
    <glyph glyph-name="y" unicode="y" horiz-adv-x="569" 
d="M23 1028h176l90 -704h8l94 704h162l-270 -1417h-162l82 418z" />
    <glyph glyph-name="z" unicode="z" horiz-adv-x="485" 
d="M51 1028h393v-156l-237 -739h237v-133h-407v170l231 725h-217v133z" />
    <glyph glyph-name="braceleft" unicode="{" horiz-adv-x="1024" 
d="M858 1350l-23 1l-22 1q-120 0 -163.5 -47.5t-43.5 -196.5v-242q0 -166 -43 -235.5t-155 -100.5q111 -30 154.5 -100t43.5 -235v-242q0 -149 43.5 -195.5t169.5 -46.5h39v-125h-35q-98 0 -159.5 12t-102.5 40q-54 36 -78 100q-22 66 -22 213v244q0 152 -55 213t-189 61
l-22 -1l-23 -1v127l23 -1l22 -1q134 0 189 62t55 214v244q0 153 22 215t78 98q41 26 101.5 39t160.5 13h35v-127z" />
    <glyph glyph-name="bar" unicode="|" horiz-adv-x="1024" 
d="M575 1565v-2048h-126v2048h126z" />
    <glyph glyph-name="braceright" unicode="}" horiz-adv-x="1024" 
d="M563 1112v-244q0 -152 55.5 -214t190.5 -62l22 1l23 1v-127l-23 1l-22 1q-135 0 -190.5 -62.5t-55.5 -213.5v-242q0 -154 -21.5 -216.5t-76.5 -99.5q-38 -25 -96.5 -37t-161.5 -12h-41v125l23 -1l22 -1q119 0 163 47.5t44 198.5v240q0 165 43 234.5t155 100.5
q-110 30 -155 100q-21 35 -32 93.5t-11 142.5v242q0 149 -44 196.5t-169 47.5h-39v125h35q100 0 160 -12.5t104 -39.5q54 -34 76 -99t22 -214z" />
    <glyph glyph-name="asciitilde" unicode="~" horiz-adv-x="1706" 
d="M1530 627q-100 -72 -197 -108t-190 -36q-41 0 -92 9.5t-99 25.5q-9 3 -34 11.5t-53 19.5q-201 72 -302 72q-85 0 -174 -38q-45 -18 -98.5 -48.5t-112.5 -73.5v133q104 71 201 108t186 37q57 0 117.5 -12.5t173.5 -52.5l44 -16q160 -58 245 -58t174.5 36.5t210.5 121.5
v-131z" />
    <glyph glyph-name="quotesinglbase" unicode="&#x201a;" horiz-adv-x="367" 
d="M102 201h189l-117 -371h-137z" />
    <glyph glyph-name="florin" unicode="&#x192;" horiz-adv-x="723" 
d="M580 1446v-131h-23q-47 0 -66 -22q-9 -11 -15.5 -31t-6.5 -46l-10 -233h94v-129h-100l-41 -964q0 -81 -12.5 -134.5t-37.5 -86.5q-43 -58 -147 -58h-18h-15q-11 2 -16 2h-28q-13 3 -19 4v131h22q46 0 66 21q9 11 15.5 31t6.5 46l43 1008h-92v129h96l11 191q0 81 13 135
t36 85q42 56 145 56l62 -1z" />
    <glyph glyph-name="quotedblbase" unicode="&#x201e;" horiz-adv-x="680" 
d="M416 201h188l-117 -371h-137zM102 201h189l-117 -371h-137z" />
    <glyph glyph-name="ellipsis" unicode="&#x2026;" horiz-adv-x="2048" 
d="M254 201h176v-201h-176v201zM936 201h176v-201h-176v201zM1620 201h176v-201h-176v201z" />
    <glyph glyph-name="dagger" unicode="&#x2020;" horiz-adv-x="674" 
d="M256 1475h162v-334h198v-140h-198v-1001h-162v1001h-199v140h199v334z" />
    <glyph glyph-name="daggerdbl" unicode="&#x2021;" horiz-adv-x="686" 
d="M262 1475h162v-326h199v-139h-199v-471h199v-140h-199v-399h-162v399h-199v140h199v471h-199v139h199v326z" />
    <glyph glyph-name="circumflex" unicode="&#x2c6;" horiz-adv-x="1024" 
d="M422 1403h180l92 -240h-114l-68 152l-68 -152h-114z" />
    <glyph glyph-name="perthousand" unicode="&#x2030;" horiz-adv-x="1544" 
d="M1356 516q0 50 -13 69t-45 19q-30 0 -43.5 -20.5t-13.5 -67.5v-350q0 -48 13 -70q14 -20 44 -20q32 0 45 19.5t13 70.5v350zM1481 496v-310q0 -117 -40 -163t-143 -46q-100 0 -140 45t-40 164v310q0 118 40.5 163.5t141.5 45.5q98 0 139.5 -46t41.5 -163zM729 1450h100
l-491 -1475h-100zM301 1257q0 51 -12.5 71t-42.5 20t-45 -21q-13 -23 -13 -70v-350q0 -48 13.5 -68t44.5 -20q29 0 43 18q12 18 12 70v350zM428 1237v-307q0 -120 -41 -165.5t-141 -45.5t-141.5 46t-41.5 165v307q0 120 41 165.5t144 45.5q99 0 139.5 -46.5t40.5 -164.5z
M1001 496v-310q0 -117 -39.5 -163t-142.5 -46q-98 0 -140 45q-20 23 -30 63t-10 101v310q0 118 39.5 163.5t142.5 45.5q98 0 139 -46t41 -163zM877 516q0 50 -13 69t-45 19q-30 0 -42.5 -19t-12.5 -69v-350q0 -49 12 -69.5t43 -20.5q32 0 45 19.5t13 70.5v350z" />
    <glyph glyph-name="Scaron" unicode="&#x160;" horiz-adv-x="696" 
d="M623 1208v-129h-191v142q0 73 -17 100q-15 29 -57 29q-45 0 -63.5 -32t-18.5 -124v-72q0 -77 78 -187l181 -259q56 -81 75 -140t19 -128v-97q0 -168 -72.5 -252t-218.5 -84t-207 66t-61 231v146h194v-150q0 -77 18 -110q19 -31 64 -31q50 0 69 35t19 137v86q0 81 -75 194
l-5 7l-190 276q-41 58 -59.5 110.5t-18.5 106.5v103q0 157 71.5 236t213.5 79q132 0 192 -66.5t60 -222.5zM166 1849h114l68 -154l68 154h114l-92 -240h-180z" />
    <glyph glyph-name="guilsinglleft" unicode="&#x2039;" horiz-adv-x="434" 
d="M215 963h131l-88 -437l88 -436h-131l-129 436z" />
    <glyph glyph-name="OE" unicode="&#x152;" horiz-adv-x="1026" 
d="M428 1319q-76 0 -102.5 -38t-26.5 -163v-762q0 -127 27 -163.5t102 -36.5h76v1163h-76zM506 1475h438v-156h-250v-471h238v-156h-238v-536h267v-156h-455q-156 0 -219.5 15t-102.5 53q-42 41 -60 107.5t-18 207.5v709q0 140 18.5 207.5t63.5 109.5q39 36 101.5 51
t216.5 15z" />
    <glyph glyph-name="quoteleft" unicode="&#x2018;" horiz-adv-x="367" 
d="M168 1475h137l-65 -371h-189z" />
    <glyph glyph-name="quoteright" unicode="&#x2019;" horiz-adv-x="367" 
d="M119 1475h188l-114 -371h-138z" />
    <glyph glyph-name="quotedblleft" unicode="&#x201c;" horiz-adv-x="680" 
d="M481 1475h137l-65 -371h-188zM168 1475h137l-65 -371h-189z" />
    <glyph glyph-name="quotedblright" unicode="&#x201d;" horiz-adv-x="680" 
d="M432 1475h189l-115 -371h-137zM119 1475h188l-114 -371h-138z" />
    <glyph glyph-name="bullet" unicode="&#x2022;" horiz-adv-x="1208" 
d="M307 762q0 122 87.5 208.5t209.5 86.5q121 0 208 -86.5t87 -208.5t-87.5 -209.5t-209.5 -87.5t-208.5 87.5t-86.5 209.5z" />
    <glyph glyph-name="endash" unicode="&#x2013;" horiz-adv-x="1024" 
d="M0 592h1024v-135h-1024v135z" />
    <glyph glyph-name="emdash" unicode="&#x2014;" horiz-adv-x="2048" 
d="M0 592h2048v-135h-2048v135z" />
    <glyph glyph-name="tilde" unicode="&#x2dc;" horiz-adv-x="1024" 
d="M625 1372h85q0 -39 -9 -70t-25 -55q-31 -43 -82 -43q-35 0 -84 21.5t-66 23.5q-17 0 -29.5 -15.5t-15.5 -41.5h-85q0 38 8.5 69.5t24.5 55.5q31 43 81 43q35 0 86 -21.5t66 -21.5q17 0 28 13t17 42z" />
    <glyph glyph-name="trademark" unicode="&#x2122;" horiz-adv-x="1706" 
d="M948 1456l160 -405l149 405h132v-534h-82v458l-172 -458h-54l-180 458v-458h-82v534h129zM694 1456v-67h-172v-467h-94v467h-174v67h440z" />
    <glyph glyph-name="scaron" unicode="&#x161;" horiz-adv-x="633" 
d="M553 780v-49h-174v53q0 89 -14 114q-12 26 -50 26q-33 0 -49 -25q-14 -25 -14 -80v-39q0 -23 18.5 -55.5t57.5 -75.5l147 -155q47 -50 70 -96q10 -22 16 -44t6 -45v-82q0 -127 -62 -189.5t-190 -62.5q-134 0 -187.5 61t-53.5 222v70h168v-82q0 -44 3 -70.5t11 -42.5
q14 -29 51 -29q42 0 62 27q18 27 18 92v39q0 36 -18.5 72.5t-55.5 75.5l-143 149q-60 65 -78 105.5t-18 91.5v59q0 118 62.5 178t182.5 60q126 0 180 -63t54 -210zM135 1403h114l68 -154l68 154h114l-92 -240h-180z" />
    <glyph glyph-name="guilsinglright" unicode="&#x203a;" horiz-adv-x="434" 
d="M86 963h133l127 -437l-127 -436h-133l90 436z" />
    <glyph glyph-name="oe" unicode="&#x153;" horiz-adv-x="1038" 
d="M770 770q0 87 -17.5 119.5t-62.5 32.5q-44 0 -63 -34.5t-19 -117.5v-184h162v184zM430 770q0 85 -18.5 118.5t-63.5 33.5q-42 0 -62 -33q-18 -33 -18 -119v-512q0 -86 18 -120t62 -34q45 0 63.5 35t18.5 119v512zM518 985q36 36 77 52q23 8 46.5 12t56.5 4
q138 0 195 -77.5t57 -275.5v-239h-342v-203q0 -89 18 -121.5t62 -32.5q45 0 63.5 35t18.5 119v88h180v-63q0 -160 -60.5 -234t-189.5 -74q-65 0 -111 17t-71 53q-26 -34 -72 -52q-42 -18 -106 -18q-139 0 -196.5 77t-57.5 276v372q0 200 57.5 276.5t198.5 76.5q61 0 104 -17
q44 -15 72 -51z" />
    <glyph glyph-name="Ydieresis" unicode="&#x178;" horiz-adv-x="643" 
d="M2 1475h195l131 -654h12l121 654h180l-227 -861v-614h-191v614zM365 1816h139v-174h-139v174zM140 1816h139v-174h-139v174z" />
    <glyph glyph-name="nonbreakingspace" unicode="&#xa0;" horiz-adv-x="723" 
 />
    <glyph glyph-name="exclamdown" unicode="&#xa1;" horiz-adv-x="471" 
d="M168 1104h133l27 -1104h-187zM147 1475h177v-201h-177v201z" />
    <glyph glyph-name="cent" unicode="&#xa2;" horiz-adv-x="723" 
d="M303 1219h117v-172q104 -12 147 -78.5t43 -218.5v-60h-182v80q0 95 -14 123.5t-52 28.5q-36 0 -51.5 -31t-15.5 -121v-489q0 -89 15.5 -120.5t51.5 -31.5t51 30t15 122v100h186v-74q0 -157 -43.5 -222.5t-152.5 -80.5v-190h-117v190q-105 15 -147.5 89.5t-42.5 258.5v348
q0 183 43 259.5t149 89.5v170z" />
    <glyph glyph-name="sterling" unicode="&#xa3;" horiz-adv-x="723" 
d="M676 1171v-47h-172v58q0 76 -17 107.5t-57 31.5q-35 0 -53 -34q-15 -33 -15 -122v-327h201v-144h-201v-551h314v-143h-619v143h129v551h-129v144h129v315q0 167 56 232t198 65q126 0 181 -63t55 -216z" />
    <glyph glyph-name="currency" unicode="&#xa4;" horiz-adv-x="1241" 
d="M936 887q0 129 -91 221t-222 92q-130 0 -222 -92t-92 -221q0 -130 91.5 -223t222.5 -93q128 0 220.5 93.5t92.5 222.5zM365 1212q58 44 122 67.5t134 23.5q73 0 135 -23q65 -21 125 -68l204 207l72 -73l-205 -205q41 -56 63.5 -121.5t22.5 -134.5q0 -71 -21.5 -135.5
t-64.5 -120.5l205 -205l-72 -74l-204 207q-58 -44 -123 -66t-137 -22t-135 21t-121 67l-207 -207l-72 74l207 205q-44 58 -66 123t-22 133q0 70 21.5 134t66.5 122l-207 205l72 73z" />
    <glyph glyph-name="yen" unicode="&#xa5;" horiz-adv-x="745" 
d="M57 1427h176l140 -643h8l147 643h160l-125 -466h174v-87h-198l-58 -212h256v-87h-278v-575h-178v575h-273v87h250l-57 212h-193v87h172z" />
    <glyph glyph-name="brokenbar" unicode="&#xa6;" horiz-adv-x="1024" 
d="M575 408v-758h-126v758h126zM575 1432v-758h-126v758h126z" />
    <glyph glyph-name="section" unicode="&#xa7;" horiz-adv-x="752" 
d="M348 928q-46 -37 -68 -74t-22 -80q0 -50 30 -93t105 -91q44 33 68 73q22 41 22 82q0 52 -30.5 93.5t-104.5 89.5zM582 1466v-149q-13 6 -34 15q-28 12 -54 20q-39 12 -74 12q-66 0 -103.5 -31t-37.5 -84q0 -37 25.5 -72.5t92.5 -86.5l55 -41q193 -142 193 -265
q0 -68 -39 -132.5t-121 -123.5q77 -54 115.5 -121t38.5 -145q0 -128 -87.5 -206.5t-236.5 -78.5q-34 0 -83 8t-111 25v152q56 -26 106 -38.5t97 -12.5q68 0 109.5 33t41.5 92q0 47 -27.5 88t-119.5 112l-29 22q-203 152 -203 279q0 65 38.5 126.5t121.5 123.5
q-72 53 -108.5 116t-36.5 136q0 114 82.5 186t216.5 72q31 0 44.5 -1.5t37.5 -6.5q46 -7 90 -23z" />
    <glyph glyph-name="dieresis" unicode="&#xa8;" horiz-adv-x="1024" 
d="M555 1370h139v-174h-139v174zM330 1370h139v-174h-139v174z" />
    <glyph glyph-name="copyright" unicode="&#xa9;" horiz-adv-x="1706" 
d="M1065 911q-15 77 -70.5 120.5t-138.5 43.5q-117 0 -182.5 -92.5t-65.5 -259.5q0 -159 66 -251.5t182 -92.5q86 0 144.5 47.5t74.5 134.5h129q0 -62 -28 -112.5t-81 -94.5q-98 -80 -245 -80q-175 0 -280 121t-105 326q0 207 107.5 332t287.5 125q135 0 228.5 -74
t105.5 -193h-129zM1501 725q0 130 -48.5 249t-139 209.5t-209 139.5t-252.5 49q-131 0 -246 -47t-207 -139.5t-142 -213.5t-50 -247q0 -127 48.5 -243.5t142 -210t210.5 -142.5t244 -49q130 0 248.5 49.5t211.5 141t141 207t48 247.5zM852 1460q151 0 284.5 -54.5
t239.5 -160.5q103 -103 157 -237.5t54 -282.5q0 -149 -54 -281.5t-159.5 -236t-242 -160.5t-279.5 -57q-146 0 -277.5 55t-237.5 161t-163 239q-27 67 -41 136.5t-14 143.5q0 146 56.5 280.5t162.5 241.5q100 102 234 157.5t280 55.5z" />
    <glyph glyph-name="ordfeminine" unicode="&#xaa;" horiz-adv-x="518" 
d="M311 1120q-34 0 -55 -5.5t-37 -18.5q-24 -20 -24 -72v-90q0 -61 13.5 -84t45.5 -23q29 0 44 24q13 26 13 83v186zM449 1296v-542h-130l-8 59q-21 -36 -53.5 -56t-71.5 -20q-68 0 -99.5 42.5t-31.5 135.5v123q0 87 57 126q31 21 80 33.5t119 12.5v82q0 67 -13 88t-44 21
q-29 0 -44 -22q-13 -23 -13 -68v-31h-125v16q0 108 42.5 151.5t147.5 43.5q102 0 144.5 -43t42.5 -152z" />
    <glyph glyph-name="guillemotleft" unicode="&#xab;" horiz-adv-x="737" 
d="M518 963h133l-88 -437l88 -436h-133l-127 436zM215 963h131l-88 -437l88 -436h-131l-129 436z" />
    <glyph glyph-name="logicalnot" unicode="&#xac;" horiz-adv-x="1706" 
d="M1452 858v-502h-115v385h-1083v117h1198z" />
    <glyph glyph-name="minus" unicode="&#xad;" horiz-adv-x="422" 
d="M57 618h308v-190h-308v190z" />
    <glyph glyph-name="registered" unicode="&#xae;" horiz-adv-x="1706" 
d="M846 1065h-144v-291h148q122 0 174.5 33.5t52.5 107.5q0 78 -54.5 114t-176.5 36zM872 1157q177 0 264 -57t87 -174q0 -89 -52.5 -148t-144.5 -76l188 -385h-157l-176 365h-179v-365h-141v840h311zM1501 721q0 131 -48 250.5t-138 210.5q-94 94 -212.5 142t-250.5 48
q-134 0 -248.5 -47t-202.5 -137q-93 -95 -143.5 -214.5t-50.5 -248.5q0 -127 48.5 -243.5t141.5 -211.5q90 -92 208.5 -141t244.5 -49q130 0 249 48t214 142q90 90 139 206q23 56 36 118.5t13 126.5zM852 1460q151 0 285 -55.5t238 -160t158 -238t54 -281.5
q0 -151 -54.5 -283t-160 -234.5t-242.5 -161.5q-67 -28 -135.5 -42t-142.5 -14q-146 0 -278 55.5t-240 163.5q-104 103 -159.5 237t-55.5 279q0 147 57 282t164 242q100 102 231.5 156.5t280.5 54.5z" />
    <glyph glyph-name="macron" unicode="&#xaf;" horiz-adv-x="1024" 
d="M332 1341h358v-118h-358v118z" />
    <glyph glyph-name="degree" unicode="&#xb0;" horiz-adv-x="674" 
d="M539 1171q0 84 -58 142.5t-143 58.5t-144 -58t-59 -143q0 -84 60 -143t143 -59q84 0 142.5 59t58.5 143zM338 1454q117 0 200 -83t83 -200q0 -115 -83.5 -198.5t-201.5 -83.5q-117 0 -199 81.5t-82 200.5t83 201t200 82z" />
    <glyph glyph-name="plusminus" unicode="&#xb1;" horiz-adv-x="1706" 
d="M1452 158v-117h-1198v117h1198zM913 1180v-344h539v-117h-539v-344h-118v344h-541v117h541v344h118z" />
    <glyph glyph-name="twosuperior" unicode="&#xb2;" horiz-adv-x="477" 
d="M412 1249v-41q0 -18 -2 -32.5t-8 -34.5q-9 -34 -40 -94l-192 -390h246v-88h-363v113l185 371l4 9q49 95 49 150v48q0 54 -12 78t-39 24q-31 0 -43.5 -21.5t-12.5 -89.5v-49h-123v33q0 115 41 160t142 45q90 0 129 -42.5t39 -148.5z" />
    <glyph glyph-name="threesuperior" unicode="&#xb3;" horiz-adv-x="477" 
d="M401 1243v-110q0 -50 -20 -77q-17 -26 -62 -38q46 -9 67.5 -37t21.5 -84v-133q0 -116 -40 -162.5t-135 -46.5q-96 0 -136 44.5t-40 158.5v43h121v-58q0 -63 12 -86.5t43 -23.5q28 0 40 22.5t12 87.5v152q0 43 -18.5 60.5t-65.5 17.5h-25v90h25q45 0 62.5 15t17.5 61v112
q0 68 -11 89.5t-39 21.5q-26 0 -40 -24q-11 -25 -11 -87v-39h-119v31q0 109 39 153t133 44q90 0 129 -44.5t39 -152.5z" />
    <glyph glyph-name="acute" unicode="&#xb4;" horiz-adv-x="1024" 
d="M530 1403h170l-139 -240h-117z" />
    <glyph glyph-name="mu" unicode="&#xb5;" horiz-adv-x="1128" 
d="M362 1069l-126 -595l-12 -67l-3 -71q0 -108 57 -167.5t160 -59.5q125 0 207 100t129 309l121 551h156l-162 -754l-18 -84l-5 -51q0 -31 18 -49q19 -16 54 -16h17q12 0 18 2l-27 -125l-44 -7l-48 -3q-70 0 -105 35q-32 34 -40 112q-40 -68 -116.5 -107.5t-172.5 -39.5
q-88 0 -152.5 33.5t-109.5 103.5l-113 -545h-156l316 1495h157z" />
    <glyph glyph-name="paragraph" unicode="&#xb6;" horiz-adv-x="1024" 
d="M948 1401h-125v-1401h-94v1401h-182v-1401h-96v782q-84 0 -152.5 26.5t-121.5 75.5q-101 95 -101 246q0 156 107.5 252.5t285.5 96.5h479v-78z" />
    <glyph glyph-name="periodcentered" unicode="&#x2219;" horiz-adv-x="360" 
d="M180 825q44 0 75.5 -30.5t31.5 -75.5q0 -42 -31.5 -73.5t-75.5 -31.5q-42 0 -73 30.5t-31 74.5q0 42 30.5 74t73.5 32z" />
    <glyph glyph-name="cedilla" unicode="&#xb8;" horiz-adv-x="1024" 
d="M473 -2h70v-90h18q64 0 96.5 -29.5t32.5 -85.5q0 -57 -42.5 -90t-121.5 -33q-13 0 -26.5 0.5t-43 5.5t-42 8.5t-39.5 12.5l20 65q25 -8 51.5 -12.5t34 -5t17.5 -0.5q32 0 50.5 14t18.5 37q0 22 -16 33.5t-47 11.5h-18l-13 -1v159z" />
    <glyph glyph-name="onesuperior" unicode="&#xb9;" horiz-adv-x="477" 
d="M190 1425h111v-856h-117v717l-47 -32q-22 -13 -55 -25v108q34 16 60.5 38t47.5 50z" />
    <glyph glyph-name="ordmasculine" unicode="&#xba;" horiz-adv-x="524" 
d="M459 1243v-260q0 -141 -44 -193.5t-155 -52.5q-107 0 -152 52q-42 53 -42 194v260q0 144 43 196t155 52q106 0 150.5 -54.5t44.5 -193.5zM322 1292q0 63 -14 84q-12 23 -46 23q-32 0 -44.5 -22t-12.5 -85v-358q0 -62 12.5 -84.5t44.5 -22.5t46 24t14 83v358z" />
    <glyph glyph-name="guillemotright" unicode="&#xbb;" horiz-adv-x="737" 
d="M391 963h133l127 -437l-127 -436h-133l88 436zM86 963h133l127 -437l-127 -436h-133l90 436z" />
    <glyph glyph-name="onequarter" unicode="&#xbc;" horiz-adv-x="1253" 
d="M1032 723l-106 -444h106l10 444h-10zM979 799h160v-520h82v-80h-82v-199h-109v199h-194v94zM1024 1450h113l-912 -1475h-112zM182 1425h105v-798h-113v669q-24 -18 -44 -30q-10 -5 -30 -14q-6 -3 -22 -9v100q31 14 58.5 36t45.5 46z" />
    <glyph glyph-name="onehalf" unicode="&#xbd;" horiz-adv-x="1253" 
d="M1190 635v-39q0 -56 -43 -141l-4 -8l-185 -365h234v-82h-344v104l176 349l5 9q44 85 44 138v43q0 56 -11 75q-9 21 -36 21q-30 0 -41.5 -20.5t-11.5 -81.5v-47h-117v33q0 106 38.5 147t135.5 41q87 0 123.5 -40t36.5 -136zM1024 1450h113l-912 -1475h-112zM182 1425h105
v-798h-113v669q-24 -18 -44 -30q-10 -5 -30 -14q-6 -3 -22 -9v100q31 14 58.5 36t45.5 46z" />
    <glyph glyph-name="threequarters" unicode="&#xbe;" horiz-adv-x="1253" 
d="M1032 723l-106 -444h106l10 444h-10zM979 799h160v-520h82v-80h-82v-199h-109v199h-194v94zM1024 1450h113l-912 -1475h-112zM383 1255v-104q0 -45 -18.5 -70t-59.5 -37q45 -7 64 -34q20 -25 20 -76v-125q0 -109 -37 -153t-129 -44q-93 0 -131.5 42.5t-38.5 148.5v41h117
v-53q0 -61 11 -83q13 -22 40 -22q28 0 39.5 21.5t11.5 83.5v139q0 42 -17.5 58t-64.5 16h-20v83h20q45 0 62 14q8 8 12 21t4 35v107q0 61 -9.5 81.5t-37.5 20.5q-26 0 -38 -22q-5 -10 -8 -30t-3 -50v-37h-115v28q0 102 36.5 142.5t129.5 40.5q88 0 124 -41.5t36 -141.5z" />
    <glyph glyph-name="questiondown" unicode="&#xbf;" horiz-adv-x="672" 
d="M254 1104h164v-193q0 -96 -10.5 -155t-36.5 -119l-58 -131q-8 -20 -14.5 -40.5t-14.5 -47.5q-4 -17 -7 -38.5t-3 -37.5v-111q0 -67 17 -94.5t55 -27.5q42 0 59 32t17 125v92h170v-104q0 -149 -59.5 -214t-196.5 -65q-126 0 -183 61.5t-57 199.5v92q0 55 12 105t33 99
l84 197q12 33 21 77q4 23 6 44t2 47v207zM248 1475h176v-201h-176v201z" />
    <glyph glyph-name="Agrave" unicode="&#xc0;" horiz-adv-x="760" 
d="M379 1315l-105 -791h205l-92 791h-8zM258 1475h258l223 -1475h-192l-47 375h-246l-55 -375h-181zM193 1849h170l86 -240h-117z" />
    <glyph glyph-name="Aacute" unicode="&#xc1;" horiz-adv-x="760" 
d="M379 1315l-105 -791h205l-92 791h-8zM258 1475h258l223 -1475h-192l-47 375h-246l-55 -375h-181zM399 1849h170l-139 -240h-117z" />
    <glyph glyph-name="Acircumflex" unicode="&#xc2;" horiz-adv-x="760" 
d="M379 1315l-105 -791h205l-92 791h-8zM258 1475h258l223 -1475h-192l-47 375h-246l-55 -375h-181zM291 1849h180l92 -240h-114l-68 152l-68 -152h-114z" />
    <glyph glyph-name="Atilde" unicode="&#xc3;" horiz-adv-x="760" 
d="M379 1315l-105 -791h205l-92 791h-8zM258 1475h258l223 -1475h-192l-47 375h-246l-55 -375h-181zM494 1818h85q0 -39 -9 -70t-25 -55q-31 -43 -82 -43q-35 0 -84 21.5t-66 23.5q-17 0 -29.5 -15.5t-15.5 -41.5h-85q0 38 8.5 69.5t24.5 55.5q31 43 81 43q35 0 86 -21.5
t66 -21.5q17 0 28 13t17 42z" />
    <glyph glyph-name="Adieresis" unicode="&#xc4;" horiz-adv-x="760" 
d="M379 1315l-105 -791h205l-92 791h-8zM258 1475h258l223 -1475h-192l-47 375h-246l-55 -375h-181zM424 1816h139v-174h-139v174zM199 1816h139v-174h-139v174z" />
    <glyph glyph-name="Aring" unicode="&#xc5;" horiz-adv-x="760" 
d="M385 1798q-33 0 -57.5 -24.5t-24.5 -59.5q0 -32 24 -57t58 -25q32 0 57 24t25 58q0 33 -25 58.5t-57 25.5zM385 1888q72 0 123 -51t51 -123q0 -74 -50 -124t-124 -50t-124 50t-50 124q0 72 51 123t123 51zM379 1315l-105 -791h205l-92 791h-8zM258 1475h258l223 -1475
h-192l-47 375h-246l-55 -375h-181z" />
    <glyph glyph-name="AE" unicode="&#xc6;" horiz-adv-x="989" 
d="M410 1370l-142 -846h211l-47 846h-22zM272 1475h637v-156h-288l28 -471h246v-156h-236l33 -536h232v-156h-412l-25 375h-243l-64 -375h-186z" />
    <glyph glyph-name="Ccedilla" unicode="&#xc7;" horiz-adv-x="723" 
d="M323 -21q-103 13 -155 80q-62 85 -62 312v733q0 226 62.5 309.5t220.5 83.5q152 0 213.5 -69.5t61.5 -247.5v-111h-191v100q0 53 -4 85t-15 54q-18 40 -61 40q-52 0 -74 -40q-20 -40 -20 -167v-807q0 -130 19.5 -168.5t70.5 -38.5q44 0 65 37q19 40 19 133v133h193v-135
q0 -180 -61.5 -250t-211.5 -70v-67h18q64 0 96.5 -29.5t32.5 -85.5q0 -57 -42.5 -90t-121.5 -33q-13 0 -26.5 0.5t-43 5.5t-42 8.5t-39.5 12.5l20 65q25 -8 51.5 -12.5t34 -5t17.5 -0.5q32 0 50.5 14t18.5 37q0 22 -16 33.5t-47 11.5h-18l-13 -1v140z" />
    <glyph glyph-name="Egrave" unicode="&#xc8;" horiz-adv-x="633" 
d="M111 1475h440v-156h-250v-471h238v-156h-238v-536h264v-156h-454v1475zM129 1849h170l86 -240h-117z" />
    <glyph glyph-name="Eacute" unicode="&#xc9;" horiz-adv-x="633" 
d="M111 1475h440v-156h-250v-471h238v-156h-238v-536h264v-156h-454v1475zM335 1849h170l-139 -240h-117z" />
    <glyph glyph-name="Ecircumflex" unicode="&#xca;" horiz-adv-x="633" 
d="M111 1475h440v-156h-250v-471h238v-156h-238v-536h264v-156h-454v1475zM227 1849h180l92 -240h-114l-68 152l-68 -152h-114z" />
    <glyph glyph-name="Edieresis" unicode="&#xcb;" horiz-adv-x="633" 
d="M111 1475h440v-156h-250v-471h238v-156h-238v-536h264v-156h-454v1475zM360 1816h139v-174h-139v174zM135 1816h139v-174h-139v174z" />
    <glyph glyph-name="Igrave" unicode="&#xcc;" horiz-adv-x="418" 
d="M113 1475h194v-1475h-194v1475zM21 1849h170l86 -240h-117z" />
    <glyph glyph-name="Iacute" unicode="&#xcd;" horiz-adv-x="418" 
d="M113 1475h194v-1475h-194v1475zM227 1849h170l-139 -240h-117z" />
    <glyph glyph-name="Icircumflex" unicode="&#xce;" horiz-adv-x="418" 
d="M113 1475h194v-1475h-194v1475zM119 1849h180l92 -240h-114l-68 152l-68 -152h-114z" />
    <glyph glyph-name="Idieresis" unicode="&#xcf;" horiz-adv-x="418" 
d="M113 1475h194v-1475h-194v1475zM252 1816h139v-174h-139v174zM27 1816h139v-174h-139v174z" />
    <glyph glyph-name="Eth" unicode="&#xd0;" horiz-adv-x="797" 
d="M694 1137v-70h-190v74q0 121 -23 164t-82 43q-55 0 -77.5 -44t-22.5 -163v-807q0 -122 24 -166q24 -41 87 -41l39 3q10 1 25 4t29 7l1 451h-103v151h293v-708q-78 -30 -150 -45t-143 -15q-162 0 -228.5 85.5t-66.5 310.5v733q0 221 64.5 307t220.5 86q168 0 235.5 -78.5
t67.5 -281.5zM200 1818h88q7 -42 31 -61q25 -17 80 -17q53 0 78 17.5t33 60.5h88v-22q0 -80 -52 -124t-147 -44t-147 45t-52 131v14z" />
    <glyph glyph-name="Ntilde" unicode="&#xd1;" horiz-adv-x="838" 
d="M111 1475h251l216 -1340h8l-19 1340h160v-1475h-254l-211 1327h-10l18 -1327h-159v1475zM533 1818h85q0 -39 -9 -70t-25 -55q-31 -43 -82 -43q-35 0 -84 21.5t-66 23.5q-17 0 -29.5 -15.5t-15.5 -41.5h-85q0 38 8.5 69.5t24.5 55.5q31 43 81 43q35 0 86 -21.5t66 -21.5
q17 0 28 13t17 42z" />
    <glyph glyph-name="Ograve" unicode="&#xd2;" horiz-adv-x="803" 
d="M696 1104v-733q0 -228 -65.5 -312t-233.5 -84q-160 0 -225.5 85.5t-65.5 310.5v733q0 227 65.5 310t234.5 83q161 0 225.5 -84.5t64.5 -308.5zM504 1141q0 121 -22.5 164t-80.5 43q-56 0 -80 -42q-22 -42 -22 -165v-807q0 -125 22.5 -166t79.5 -41q56 0 79.5 42.5
t23.5 164.5v807zM213 1849h170l86 -240h-117z" />
    <glyph glyph-name="Oacute" unicode="&#xd3;" horiz-adv-x="803" 
d="M696 1104v-733q0 -228 -65.5 -312t-233.5 -84q-160 0 -225.5 85.5t-65.5 310.5v733q0 227 65.5 310t234.5 83q161 0 225.5 -84.5t64.5 -308.5zM504 1141q0 121 -22.5 164t-80.5 43q-56 0 -80 -42q-22 -42 -22 -165v-807q0 -125 22.5 -166t79.5 -41q56 0 79.5 42.5
t23.5 164.5v807zM419 1849h170l-139 -240h-117z" />
    <glyph glyph-name="Ocircumflex" unicode="&#xd4;" horiz-adv-x="803" 
d="M696 1104v-733q0 -228 -65.5 -312t-233.5 -84q-160 0 -225.5 85.5t-65.5 310.5v733q0 227 65.5 310t234.5 83q161 0 225.5 -84.5t64.5 -308.5zM504 1141q0 121 -22.5 164t-80.5 43q-56 0 -80 -42q-22 -42 -22 -165v-807q0 -125 22.5 -166t79.5 -41q56 0 79.5 42.5
t23.5 164.5v807zM311 1849h180l92 -240h-114l-68 152l-68 -152h-114z" />
    <glyph glyph-name="Otilde" unicode="&#xd5;" horiz-adv-x="803" 
d="M696 1104v-733q0 -228 -65.5 -312t-233.5 -84q-160 0 -225.5 85.5t-65.5 310.5v733q0 227 65.5 310t234.5 83q161 0 225.5 -84.5t64.5 -308.5zM504 1141q0 121 -22.5 164t-80.5 43q-56 0 -80 -42q-22 -42 -22 -165v-807q0 -125 22.5 -166t79.5 -41q56 0 79.5 42.5
t23.5 164.5v807zM514 1818h85q0 -39 -9 -70t-25 -55q-31 -43 -82 -43q-35 0 -84 21.5t-66 23.5q-17 0 -29.5 -15.5t-15.5 -41.5h-85q0 38 8.5 69.5t24.5 55.5q31 43 81 43q35 0 86 -21.5t66 -21.5q17 0 28 13t17 42z" />
    <glyph glyph-name="Odieresis" unicode="&#xd6;" horiz-adv-x="803" 
d="M696 1104v-733q0 -228 -65.5 -312t-233.5 -84q-160 0 -225.5 85.5t-65.5 310.5v733q0 227 65.5 310t234.5 83q161 0 225.5 -84.5t64.5 -308.5zM504 1141q0 121 -22.5 164t-80.5 43q-56 0 -80 -42q-22 -42 -22 -165v-807q0 -125 22.5 -166t79.5 -41q56 0 79.5 42.5
t23.5 164.5v807zM444 1816h139v-174h-139v174zM219 1816h139v-174h-139v174z" />
    <glyph glyph-name="multiply" unicode="&#xd7;" horiz-adv-x="1706" 
d="M858 692l475 477l82 -82l-475 -477l475 -475l-82 -82l-475 475l-477 -475l-80 82l475 475l-475 477l80 82z" />
    <glyph glyph-name="Oslash" unicode="&#xd8;" horiz-adv-x="803" 
d="M696 1104v-733q0 -228 -65.5 -312t-233.5 -84q-44 0 -79 7q-39 6 -70 20l-60 -152l-116 37l80 199q-23 28 -35 96q-5 31 -8 79t-3 110v733q0 227 65.5 310t234.5 83q37 0 73.5 -5.5t69.5 -16.5l53 131l113 -45l-70 -166q27 -33 39 -99.5t12 -191.5zM504 1141
q0 121 -22.5 164t-80.5 43q-56 0 -80 -42q-22 -42 -22 -165v-807q0 -125 22.5 -166t79.5 -41q56 0 79.5 42.5t23.5 164.5v807z" />
    <glyph glyph-name="Ugrave" unicode="&#xd9;" horiz-adv-x="801" 
d="M109 1475h192v-1141q0 -123 21.5 -165t78.5 -42q53 0 77 42q22 44 22 165v1141h194v-1104q0 -226 -65.5 -311t-233.5 -85q-159 0 -222.5 84.5t-63.5 311.5v1104zM213 1849h170l86 -240h-117z" />
    <glyph glyph-name="Uacute" unicode="&#xda;" horiz-adv-x="801" 
d="M109 1475h192v-1141q0 -123 21.5 -165t78.5 -42q53 0 77 42q22 44 22 165v1141h194v-1104q0 -226 -65.5 -311t-233.5 -85q-159 0 -222.5 84.5t-63.5 311.5v1104zM419 1849h170l-139 -240h-117z" />
    <glyph glyph-name="Ucircumflex" unicode="&#xdb;" horiz-adv-x="801" 
d="M109 1475h192v-1141q0 -123 21.5 -165t78.5 -42q53 0 77 42q22 44 22 165v1141h194v-1104q0 -226 -65.5 -311t-233.5 -85q-159 0 -222.5 84.5t-63.5 311.5v1104zM311 1849h180l92 -240h-114l-68 152l-68 -152h-114z" />
    <glyph glyph-name="Udieresis" unicode="&#xdc;" horiz-adv-x="801" 
d="M109 1475h192v-1141q0 -123 21.5 -165t78.5 -42q53 0 77 42q22 44 22 165v1141h194v-1104q0 -226 -65.5 -311t-233.5 -85q-159 0 -222.5 84.5t-63.5 311.5v1104zM444 1816h139v-174h-139v174zM219 1816h139v-174h-139v174z" />
    <glyph glyph-name="Yacute" unicode="&#xdd;" horiz-adv-x="418" 
d="M113 1475h194v-1475h-194v1475zM131 1826h156v-188h-156v188z" />
    <glyph glyph-name="Thorn" unicode="&#xde;" horiz-adv-x="696" 
d="M309 -24q-62 0 -105.5 16.5t-73.5 48.5q-60 66 -60 231v146h194v-150q0 -77 18 -110q19 -31 64 -31q50 0 69 35t19 137v86q0 81 -75 194l-5 7l-190 276q-41 58 -59.5 110.5t-18.5 106.5v103q0 157 71.5 236t213.5 79q132 0 192 -66.5t60 -222.5v-129h-191v142
q0 73 -17 100q-15 29 -57 29q-45 0 -63.5 -32t-18.5 -124v-72q0 -77 78 -187l181 -259q56 -81 75 -140t19 -128v-97q0 -168 -73 -253q-61 -71 -177 -81v-69h18q64 0 96.5 -29.5t32.5 -85.5q0 -57 -42.5 -90t-121.5 -33q-13 0 -26.5 0.5t-43 5.5t-42 8.5t-39.5 12.5l20 65
q25 -8 51.5 -12.5t34 -5t17.5 -0.5q32 0 50.5 14t18.5 37q0 22 -16 33.5t-47 11.5h-18l-13 -1v137z" />
    <glyph glyph-name="germandbls" unicode="&#xdf;" horiz-adv-x="850" 
d="M670 1184v-168q-55 -17 -84 -49t-29 -76q0 -24 9 -51q5 -15 12 -30t20 -36l143 -252l2 -3q50 -91 50 -181v-94q0 -153 -60.5 -207.5t-226.5 -54.5l-57 3l-52 9v133l47 -10l64 -2q62 0 87.5 28.5t25.5 98.5v55q0 39 -9 74q-5 19 -12 36.5t-20 41.5l-148 264l-4 7
q-57 104 -57 165q0 59 30 103t95 75v135q0 98 -26 134q-24 36 -89 36q-60 0 -84.5 -36.5t-24.5 -135.5v-1196h-180v1163q0 190 63 262t220 72q162 0 228.5 -70t66.5 -243z" />
    <glyph glyph-name="agrave" unicode="&#xe0;" horiz-adv-x="690" 
d="M415 524q-46 0 -76 -8.5t-49 -25.5q-32 -29 -32 -103v-131q0 -82 18 -116t62 -34q42 0 60 33t18 117zM598 776v-776h-172l-10 84q-31 -53 -74 -81t-94 -28q-91 0 -132.5 60.5t-41.5 195.5v177q0 123 77 179q41 29 107 46.5t158 17.5v119q0 93 -17 123.5t-61 30.5
q-39 0 -57.5 -30.5t-18.5 -98.5v-43h-168v24q0 154 57.5 215.5t198.5 61.5q135 0 191.5 -62t56.5 -215zM158 1403h170l86 -240h-117z" />
    <glyph glyph-name="aacute" unicode="&#xe1;" horiz-adv-x="690" 
d="M415 524q-46 0 -76 -8.5t-49 -25.5q-32 -29 -32 -103v-131q0 -82 18 -116t62 -34q42 0 60 33t18 117zM598 776v-776h-172l-10 84q-31 -53 -74 -81t-94 -28q-91 0 -132.5 60.5t-41.5 195.5v177q0 123 77 179q41 29 107 46.5t158 17.5v119q0 93 -17 123.5t-61 30.5
q-39 0 -57.5 -30.5t-18.5 -98.5v-43h-168v24q0 154 57.5 215.5t198.5 61.5q135 0 191.5 -62t56.5 -215zM364 1403h170l-139 -240h-117z" />
    <glyph glyph-name="acircumflex" unicode="&#xe2;" horiz-adv-x="690" 
d="M415 524q-46 0 -76 -8.5t-49 -25.5q-32 -29 -32 -103v-131q0 -82 18 -116t62 -34q42 0 60 33t18 117zM598 776v-776h-172l-10 84q-31 -53 -74 -81t-94 -28q-91 0 -132.5 60.5t-41.5 195.5v177q0 123 77 179q41 29 107 46.5t158 17.5v119q0 93 -17 123.5t-61 30.5
q-39 0 -57.5 -30.5t-18.5 -98.5v-43h-168v24q0 154 57.5 215.5t198.5 61.5q135 0 191.5 -62t56.5 -215zM256 1403h180l92 -240h-114l-68 152l-68 -152h-114z" />
    <glyph glyph-name="atilde" unicode="&#xe3;" horiz-adv-x="690" 
d="M415 524q-46 0 -76 -8.5t-49 -25.5q-32 -29 -32 -103v-131q0 -82 18 -116t62 -34q42 0 60 33t18 117zM598 776v-776h-172l-10 84q-31 -53 -74 -81t-94 -28q-91 0 -132.5 60.5t-41.5 195.5v177q0 123 77 179q41 29 107 46.5t158 17.5v119q0 93 -17 123.5t-61 30.5
q-39 0 -57.5 -30.5t-18.5 -98.5v-43h-168v24q0 154 57.5 215.5t198.5 61.5q135 0 191.5 -62t56.5 -215zM459 1372h85q0 -39 -9 -70t-25 -55q-31 -43 -82 -43q-35 0 -84 21.5t-66 23.5q-17 0 -29.5 -15.5t-15.5 -41.5h-85q0 38 8.5 69.5t24.5 55.5q31 43 81 43q35 0 86 -21.5
t66 -21.5q17 0 28 13t17 42z" />
    <glyph glyph-name="adieresis" unicode="&#xe4;" horiz-adv-x="690" 
d="M415 524q-46 0 -76 -8.5t-49 -25.5q-32 -29 -32 -103v-131q0 -82 18 -116t62 -34q42 0 60 33t18 117zM598 776v-776h-172l-10 84q-31 -53 -74 -81t-94 -28q-91 0 -132.5 60.5t-41.5 195.5v177q0 123 77 179q41 29 107 46.5t158 17.5v119q0 93 -17 123.5t-61 30.5
q-39 0 -57.5 -30.5t-18.5 -98.5v-43h-168v24q0 154 57.5 215.5t198.5 61.5q135 0 191.5 -62t56.5 -215zM389 1370h139v-174h-139v174zM164 1370h139v-174h-139v174z" />
    <glyph glyph-name="aring" unicode="&#xe5;" horiz-adv-x="690" 
d="M354 1366q-30 0 -54 -23.5t-24 -54.5q0 -34 23 -57t55 -23q33 0 55.5 24t22.5 56t-23 55t-55 23zM356 1454q67 0 115.5 -48.5t48.5 -117.5q0 -72 -47 -120t-117 -48t-119 48t-49 120q0 69 48.5 117.5t119.5 48.5zM415 524q-46 0 -76 -8.5t-49 -25.5q-32 -29 -32 -103
v-131q0 -82 18 -116t62 -34q42 0 60 33t18 117zM598 776v-776h-172l-10 84q-31 -53 -74 -81t-94 -28q-91 0 -132.5 60.5t-41.5 195.5v177q0 123 77 179q41 29 107 46.5t158 17.5v119q0 93 -17 123.5t-61 30.5q-39 0 -57.5 -30.5t-18.5 -98.5v-43h-168v24q0 154 57.5 215.5
t198.5 61.5q135 0 191.5 -62t56.5 -215z" />
    <glyph glyph-name="ae" unicode="&#xe6;" horiz-adv-x="1030" 
d="M426 483q-93 0 -129.5 -31.5t-36.5 -109.5v-86q0 -84 18 -117t64 -33q44 0 65 33q19 35 19 117v227zM768 770q0 89 -18.5 121.5t-63.5 32.5t-63.5 -33.5t-18.5 -120.5v-162h164v162zM522 997q30 27 70 42q42 14 94 14q142 0 200 -76.5t58 -276.5v-217h-340v-225
q0 -91 18 -121.5t62 -30.5q42 0 60 33t18 119v88h182v-63q0 -155 -62.5 -231.5t-193.5 -76.5q-84 0 -135.5 24.5t-71.5 74.5q-32 -52 -82.5 -75.5t-132.5 -23.5q-102 0 -146 59t-44 197v140q0 123 78 180t252 57h20v162q0 89 -18 121.5t-64 32.5q-39 0 -58.5 -32t-19.5 -99
v-41h-170v24q0 148 57.5 212.5t186.5 64.5q65 0 107 -14q44 -12 75 -42z" />
    <glyph glyph-name="ccedilla" unicode="&#xe7;" horiz-adv-x="655" 
d="M289 -20q-102 11 -148 71q-55 76 -55 277v372q0 202 57 277.5t197 75.5q128 0 189 -74.5t61 -228.5v-60h-182v84q0 86 -16 117q-8 15 -21.5 23t-34.5 8q-34 0 -50 -32q-14 -33 -14 -120v-512q0 -89 15 -121.5t53 -32.5q36 0 51 30.5t15 123.5v100h184v-79
q0 -154 -62 -228q-29 -35 -71.5 -54t-97.5 -19v-70h18q64 0 96.5 -29.5t32.5 -85.5q0 -57 -42.5 -90t-121.5 -33q-13 0 -26.5 0.5t-43 5.5t-42 8.5t-39.5 12.5l20 65q25 -8 51.5 -12.5t34 -5t17.5 -0.5q32 0 50.5 14t18.5 37q0 22 -16 33.5t-47 11.5h-18l-13 -1v141z" />
    <glyph glyph-name="egrave" unicode="&#xe8;" horiz-adv-x="698" 
d="M612 700v-239h-340v-203q0 -89 18 -121.5t62 -32.5q42 0 60 33.5t18 120.5v88h182v-67q0 -156 -62.5 -229t-199.5 -73q-147 0 -205.5 75t-58.5 276v372q0 202 58.5 277.5t207.5 75.5q144 0 202 -76t58 -277zM430 772q0 87 -17.5 121.5t-60.5 34.5q-42 0 -62 -33
q-18 -33 -18 -123v-186h158v186zM162 1403h170l86 -240h-117z" />
    <glyph glyph-name="eacute" unicode="&#xe9;" horiz-adv-x="698" 
d="M612 700v-239h-340v-203q0 -89 18 -121.5t62 -32.5q42 0 60 33.5t18 120.5v88h182v-67q0 -156 -62.5 -229t-199.5 -73q-147 0 -205.5 75t-58.5 276v372q0 202 58.5 277.5t207.5 75.5q144 0 202 -76t58 -277zM430 772q0 87 -17.5 121.5t-60.5 34.5q-42 0 -62 -33
q-18 -33 -18 -123v-186h158v186zM368 1403h170l-139 -240h-117z" />
    <glyph glyph-name="ecircumflex" unicode="&#xea;" horiz-adv-x="698" 
d="M612 700v-239h-340v-203q0 -89 18 -121.5t62 -32.5q42 0 60 33.5t18 120.5v88h182v-67q0 -156 -62.5 -229t-199.5 -73q-147 0 -205.5 75t-58.5 276v372q0 202 58.5 277.5t207.5 75.5q144 0 202 -76t58 -277zM430 772q0 87 -17.5 121.5t-60.5 34.5q-42 0 -62 -33
q-18 -33 -18 -123v-186h158v186zM260 1403h180l92 -240h-114l-68 152l-68 -152h-114z" />
    <glyph glyph-name="edieresis" unicode="&#xeb;" horiz-adv-x="698" 
d="M612 700v-239h-340v-203q0 -89 18 -121.5t62 -32.5q42 0 60 33.5t18 120.5v88h182v-67q0 -156 -62.5 -229t-199.5 -73q-147 0 -205.5 75t-58.5 276v372q0 202 58.5 277.5t207.5 75.5q144 0 202 -76t58 -277zM430 772q0 87 -17.5 121.5t-60.5 34.5q-42 0 -62 -33
q-18 -33 -18 -123v-186h158v186zM393 1370h139v-174h-139v174zM168 1370h139v-174h-139v174z" />
    <glyph glyph-name="igrave" unicode="&#xec;" horiz-adv-x="365" 
d="M92 1028h180v-1028h-180v1028zM-6 1403h170l86 -240h-117z" />
    <glyph glyph-name="iacute" unicode="&#xed;" horiz-adv-x="365" 
d="M92 1028h180v-1028h-180v1028zM200 1403h170l-139 -240h-117z" />
    <glyph glyph-name="icircumflex" unicode="&#xee;" horiz-adv-x="365" 
d="M92 1028h180v-1028h-180v1028zM92 1403h180l92 -240h-114l-68 152l-68 -152h-114z" />
    <glyph glyph-name="idieresis" unicode="&#xef;" horiz-adv-x="365" 
d="M92 1028h180v-1028h-180v1028zM225 1370h139v-174h-139v174zM0 1370h139v-174h-139v174z" />
    <glyph glyph-name="eth" unicode="&#xf0;" horiz-adv-x="696" 
d="M424 766q0 81 -17.5 114t-58.5 33q-42 0 -60 -32.5t-18 -114.5v-457q0 -85 17 -116t59 -31t60 33t18 114v457zM424 946l10 82h172v-1124q0 -171 -57.5 -239t-202.5 -68q-134 0 -196 64t-62 204v43h184v-41q0 -75 16.5 -107t53.5 -32q45 0 63.5 34.5t18.5 116.5v250
q-29 -51 -72 -80q-43 -26 -94 -26q-89 0 -129.5 57.5t-40.5 195.5v523q0 137 39.5 195.5t132.5 58.5q48 0 90.5 -27.5t73.5 -79.5zM149 1372h88q7 -42 31 -61q25 -17 80 -17q53 0 78 17.5t33 60.5h88v-22q0 -80 -52 -124t-147 -44t-147 45t-52 131v14z" />
    <glyph glyph-name="ntilde" unicode="&#xf1;" horiz-adv-x="702" 
d="M610 793v-793h-182v766q0 82 -17.5 113.5t-60.5 31.5q-42 0 -60 -32.5t-18 -112.5v-766h-180v1028h172l8 -82q33 52 77 79.5t95 27.5q91 0 128.5 -57t37.5 -203zM465 1372h85q0 -39 -9 -70t-25 -55q-31 -43 -82 -43q-35 0 -84 21.5t-66 23.5q-17 0 -29.5 -15.5
t-15.5 -41.5h-85q0 38 8.5 69.5t24.5 55.5q31 43 81 43q35 0 86 -21.5t66 -21.5q17 0 28 13t17 42z" />
    <glyph glyph-name="ograve" unicode="&#xf2;" horiz-adv-x="698" 
d="M612 700v-372q0 -201 -58 -277t-208 -76q-144 0 -202 76t-58 277v372q0 202 58.5 277.5t207.5 75.5q143 0 201.5 -77t58.5 -276zM428 770q0 86 -17.5 119t-60.5 33q-41 0 -61 -33q-17 -32 -17 -119v-512q0 -91 17.5 -122.5t60.5 -31.5q42 0 60 33.5t18 120.5v512z
M162 1403h170l86 -240h-117z" />
    <glyph glyph-name="oacute" unicode="&#xf3;" horiz-adv-x="698" 
d="M612 700v-372q0 -201 -58 -277t-208 -76q-144 0 -202 76t-58 277v372q0 202 58.5 277.5t207.5 75.5q143 0 201.5 -77t58.5 -276zM428 770q0 86 -17.5 119t-60.5 33q-41 0 -61 -33q-17 -32 -17 -119v-512q0 -91 17.5 -122.5t60.5 -31.5q42 0 60 33.5t18 120.5v512z
M368 1403h170l-139 -240h-117z" />
    <glyph glyph-name="ocircumflex" unicode="&#xf4;" horiz-adv-x="698" 
d="M612 700v-372q0 -201 -58 -277t-208 -76q-144 0 -202 76t-58 277v372q0 202 58.5 277.5t207.5 75.5q143 0 201.5 -77t58.5 -276zM428 770q0 86 -17.5 119t-60.5 33q-41 0 -61 -33q-17 -32 -17 -119v-512q0 -91 17.5 -122.5t60.5 -31.5q42 0 60 33.5t18 120.5v512z
M260 1403h180l92 -240h-114l-68 152l-68 -152h-114z" />
    <glyph glyph-name="otilde" unicode="&#xf5;" horiz-adv-x="698" 
d="M612 700v-372q0 -201 -58 -277t-208 -76q-144 0 -202 76t-58 277v372q0 202 58.5 277.5t207.5 75.5q143 0 201.5 -77t58.5 -276zM428 770q0 86 -17.5 119t-60.5 33q-41 0 -61 -33q-17 -32 -17 -119v-512q0 -91 17.5 -122.5t60.5 -31.5q42 0 60 33.5t18 120.5v512z
M463 1372h85q0 -39 -9 -70t-25 -55q-31 -43 -82 -43q-35 0 -84 21.5t-66 23.5q-17 0 -29.5 -15.5t-15.5 -41.5h-85q0 38 8.5 69.5t24.5 55.5q31 43 81 43q35 0 86 -21.5t66 -21.5q17 0 28 13t17 42z" />
    <glyph glyph-name="odieresis" unicode="&#xf6;" horiz-adv-x="698" 
d="M612 700v-372q0 -201 -58 -277t-208 -76q-144 0 -202 76t-58 277v372q0 202 58.5 277.5t207.5 75.5q143 0 201.5 -77t58.5 -276zM428 770q0 86 -17.5 119t-60.5 33q-41 0 -61 -33q-17 -32 -17 -119v-512q0 -91 17.5 -122.5t60.5 -31.5q42 0 60 33.5t18 120.5v512z
M393 1370h139v-174h-139v174zM168 1370h139v-174h-139v174z" />
    <glyph glyph-name="divide" unicode="&#xf7;" horiz-adv-x="1706" 
d="M854 365q47 0 81 -34t34 -81t-34 -81t-81 -34t-81 33t-34 82q0 48 34 81.5t81 33.5zM1452 670v-117h-1198v117h1198zM854 1085q48 0 81.5 -34t33.5 -80q0 -48 -33.5 -81.5t-81.5 -33.5q-47 0 -81 33t-34 82q0 46 34 80t81 34z" />
    <glyph glyph-name="oslash" unicode="&#xf8;" horiz-adv-x="698" 
d="M612 700v-372q0 -194 -56.5 -273.5t-193.5 -79.5q-42 0 -58 1.5t-39 6.5q-41 8 -66 23l-54 -119l-86 35l70 154q-22 30 -33 90q-4 27 -7 70t-3 92v372q0 196 57 274.5t191 78.5q61 0 102 -10q44 -9 76 -29l41 102l88 -33l-63 -143q16 -29 25 -88t9 -152zM428 770
q0 86 -17.5 119t-60.5 33q-41 0 -61 -33q-17 -32 -17 -119v-512q0 -91 17.5 -122.5t60.5 -31.5q42 0 60 33.5t18 120.5v512z" />
    <glyph glyph-name="ugrave" unicode="&#xf9;" horiz-adv-x="702" 
d="M90 1028h182v-764q0 -85 17 -116q19 -31 61 -31t60 33t18 114v764h182v-1028h-174l-8 84q-33 -52 -76 -79.5t-96 -27.5q-91 0 -128.5 56.5t-37.5 202.5v792zM164 1403h170l86 -240h-117z" />
    <glyph glyph-name="uacute" unicode="&#xfa;" horiz-adv-x="702" 
d="M90 1028h182v-764q0 -85 17 -116q19 -31 61 -31t60 33t18 114v764h182v-1028h-174l-8 84q-33 -52 -76 -79.5t-96 -27.5q-91 0 -128.5 56.5t-37.5 202.5v792zM370 1403h170l-139 -240h-117z" />
    <glyph glyph-name="ucircumflex" unicode="&#xfb;" horiz-adv-x="702" 
d="M90 1028h182v-764q0 -85 17 -116q19 -31 61 -31t60 33t18 114v764h182v-1028h-174l-8 84q-33 -52 -76 -79.5t-96 -27.5q-91 0 -128.5 56.5t-37.5 202.5v792zM262 1403h180l92 -240h-114l-68 152l-68 -152h-114z" />
    <glyph glyph-name="udieresis" unicode="&#xfc;" horiz-adv-x="702" 
d="M90 1028h182v-764q0 -85 17 -116q19 -31 61 -31t60 33t18 114v764h182v-1028h-174l-8 84q-33 -52 -76 -79.5t-96 -27.5q-91 0 -128.5 56.5t-37.5 202.5v792zM395 1370h139v-174h-139v174zM170 1370h139v-174h-139v174z" />
    <glyph glyph-name="yacute" unicode="&#xfd;" horiz-adv-x="365" 
d="M92 1028h180v-1028h-180v1028z" />
    <glyph glyph-name="thorn" unicode="&#xfe;" horiz-adv-x="633" 
d="M278 -24q-50 0 -88.5 16.5t-62.5 43.5q-53 61 -53 222v70h168v-82q0 -44 3 -70.5t11 -42.5q14 -29 51 -29q42 0 62 27q18 27 18 92v39q0 36 -18.5 72.5t-55.5 75.5l-143 149q-60 65 -78 105.5t-18 91.5v59q0 118 62.5 178t182.5 60q126 0 180 -63t54 -210v-49h-174v53
q0 89 -14 114q-12 26 -50 26q-33 0 -49 -25q-14 -25 -14 -80v-39q0 -23 18.5 -55.5t57.5 -75.5l147 -155q47 -50 70 -96q10 -22 16 -44t6 -45v-82q0 -127 -62 -190q-52 -52 -157 -61v-68h18q64 0 96.5 -29.5t32.5 -85.5q0 -57 -42.5 -90t-121.5 -33q-13 0 -26.5 0.5t-43 5.5
t-42 8.5t-39.5 12.5l20 65q25 -8 51.5 -12.5t34 -5t17.5 -0.5q32 0 50.5 14t18.5 37q0 22 -16 33.5t-47 11.5h-18l-13 -1v137z" />
    <glyph glyph-name="ydieresis" unicode="&#xff;" horiz-adv-x="569" 
d="M23 1028h176l90 -704h8l94 704h162l-270 -1417h-162l82 418zM328 1370h139v-174h-139v174zM103 1370h139v-174h-139v174z" />
    <glyph glyph-name="breve" unicode="&#x2d8;" horiz-adv-x="1024" 
d="M313 1372h88q7 -42 31 -61q25 -17 80 -17q53 0 78 17.5t33 60.5h88v-22q0 -80 -52 -124t-147 -44t-147 45t-52 131v14z" />
    <glyph glyph-name="dotaccent" unicode="&#x2d9;" horiz-adv-x="1024" 
d="M434 1380h156v-188h-156v188z" />
    <glyph glyph-name="dotlessi" unicode="&#x131;" horiz-adv-x="365" 
d="M92 1028h180v-1028h-180v1028z" />
    <glyph glyph-name="ring" unicode="&#x2da;" horiz-adv-x="1024" 
d="M512 1382q-29 0 -55 -24q-23 -25 -23 -55q0 -34 22.5 -57t55.5 -23t55.5 23t22.5 57q0 32 -23 55.5t-55 23.5zM512 1470q66 0 116 -50t50 -117q0 -69 -47.5 -117.5t-118.5 -48.5t-118.5 48t-47.5 118q0 68 48.5 117.5t117.5 49.5z" />
    <glyph glyph-name="ogonek" unicode="&#x2db;" horiz-adv-x="1024" 
d="M541 8h55q-49 -60 -71 -100q-19 -38 -19 -66q0 -35 19.5 -50t72.5 -15h31v-90h-56q-89 0 -130.5 28t-41.5 90q0 44 30.5 90.5t109.5 112.5z" />
    <glyph glyph-name="caron" unicode="&#x2c7;" horiz-adv-x="1024" 
d="M330 1403h114l68 -154l68 154h114l-92 -240h-180z" />
    <glyph glyph-name="Lslash" unicode="&#x141;" horiz-adv-x="586" 
d="M123 1475h190v-621l166 113v-136l-166 -110v-565h271v-156h-461v625l-117 -80v135l117 78v717z" />
    <glyph glyph-name="lslash" unicode="&#x142;" horiz-adv-x="391" 
d="M104 1475h183v-615l104 68v-121l-104 -72v-735h-183v651l-102 -69v123l102 69v701z" />
    <glyph glyph-name="fraction" unicode="&#x2215;" horiz-adv-x="342" 
d="M569 1450h113l-911 -1475h-113z" />
    <glyph glyph-name="fi" unicode="&#xf001;" horiz-adv-x="733" 
d="M459 1028h182v-1028h-182v1028zM461 1499h180v-186h-180v186zM385 1497v-129h-23q-47 0 -64 -15.5t-17 -60.5v-264h94v-129h-94v-899h-181v899h-71v129h71v193q0 174 45 226t172 52l41 -1z" />
    <glyph glyph-name="fl" unicode="&#xf002;" horiz-adv-x="733" 
d="M385 1497v-129h-23q-47 0 -64 -15.5t-17 -60.5v-264h94v-129h-94v-899h-181v899h-71v129h71v193q0 174 45 226t172 52l41 -1zM459 1499h182v-1499h-182v1499z" />
    <glyph glyph-name="Zcaron" unicode="&#x17d;" horiz-adv-x="582" 
d="M55 1475h490v-179l-328 -1146h336v-150h-518v190l327 1135h-307v150zM109 1849h114l68 -154l68 154h114l-92 -240h-180z" />
    <glyph glyph-name="zcaron" unicode="&#x17e;" horiz-adv-x="485" 
d="M51 1028h393v-156l-237 -739h237v-133h-407v170l231 725h-217v133zM62 1403h114l68 -154l68 154h114l-92 -240h-180z" />
    <glyph glyph-name="Cacute" unicode="&#x106;" horiz-adv-x="723" 
d="M664 1180v-111h-191v100q0 53 -4 85t-15 54q-18 40 -61 40q-52 0 -74 -40q-20 -40 -20 -167v-807q0 -130 19.5 -168.5t70.5 -38.5q44 0 65 37q19 40 19 133v133h193v-135q0 -180 -62 -250t-219 -70q-152 0 -215.5 84.5t-63.5 311.5v733q0 226 62.5 309.5t220.5 83.5
q152 0 213.5 -69.5t61.5 -247.5zM409 1849h170l-139 -240h-117z" />
    <glyph glyph-name="cacute" unicode="&#x107;" horiz-adv-x="655" 
d="M590 750v-60h-182v84q0 86 -16 117q-8 15 -21.5 23t-34.5 8q-34 0 -50 -32q-14 -33 -14 -120v-512q0 -89 15 -121.5t53 -32.5q36 0 51 30.5t15 123.5v100h184v-79q0 -154 -62 -228t-190 -74q-141 0 -196.5 75t-55.5 276v372q0 202 57 277.5t197 75.5q128 0 189 -74.5
t61 -228.5zM366 1403h170l-139 -240h-117z" />
    <glyph glyph-name="Ccaron" unicode="&#x10c;" horiz-adv-x="723" 
d="M664 1180v-111h-191v100q0 53 -4 85t-15 54q-18 40 -61 40q-52 0 -74 -40q-20 -40 -20 -167v-807q0 -130 19.5 -168.5t70.5 -38.5q44 0 65 37q19 40 19 133v133h193v-135q0 -180 -62 -250t-219 -70q-152 0 -215.5 84.5t-63.5 311.5v733q0 226 62.5 309.5t220.5 83.5
q152 0 213.5 -69.5t61.5 -247.5zM209 1849h114l68 -154l68 154h114l-92 -240h-180z" />
    <glyph glyph-name="ccaron" unicode="&#x10d;" horiz-adv-x="655" 
d="M590 750v-60h-182v84q0 86 -16 117q-8 15 -21.5 23t-34.5 8q-34 0 -50 -32q-14 -33 -14 -120v-512q0 -89 15 -121.5t53 -32.5q36 0 51 30.5t15 123.5v100h184v-79q0 -154 -62 -228t-190 -74q-141 0 -196.5 75t-55.5 276v372q0 202 57 277.5t197 75.5q128 0 189 -74.5
t61 -228.5zM166 1403h114l68 -154l68 154h114l-92 -240h-180z" />
    <glyph glyph-name="dcroat" unicode="&#x111;" horiz-adv-x="705" 
d="M424 766q0 80 -17.5 112.5t-58.5 32.5q-43 0 -60 -32q-18 -30 -18 -113v-502q0 -85 17 -116q19 -31 59 -31q42 0 60 33t18 114v502zM424 1475h182v-183h101v-106h-101v-1186h-174l-8 84q-15 -26 -33.5 -46.5t-41 -34.5t-43.5 -21t-48 -7q-90 0 -130 59.5t-40 196.5v566
q0 138 39.5 197t132.5 59q48 0 90.5 -27.5t73.5 -79.5v240h-211v106h211v183z" />
    <glyph glyph-name="Scedilla" unicode="&#x15e;" horiz-adv-x="696" 
d="M309 -24q-62 0 -105.5 16.5t-73.5 48.5q-60 66 -60 231v146h194v-150q0 -77 18 -110q19 -31 64 -31q50 0 69 35t19 137v86q0 81 -75 194l-5 7l-190 276q-41 58 -59.5 110.5t-18.5 106.5v103q0 157 71.5 236t213.5 79q132 0 192 -66.5t60 -222.5v-129h-191v142
q0 73 -17 100q-15 29 -57 29q-45 0 -63.5 -32t-18.5 -124v-72q0 -77 78 -187l181 -259q56 -81 75 -140t19 -128v-97q0 -168 -73 -253q-61 -71 -177 -81v-69h18q64 0 96.5 -29.5t32.5 -85.5q0 -57 -42.5 -90t-121.5 -33q-13 0 -26.5 0.5t-43 5.5t-42 8.5t-39.5 12.5l20 65
q25 -8 51.5 -12.5t34 -5t17.5 -0.5q32 0 50.5 14t18.5 37q0 22 -16 33.5t-47 11.5h-18l-13 -1v137z" />
    <glyph glyph-name="scedilla" unicode="&#x15f;" horiz-adv-x="633" 
d="M278 -24q-50 0 -88.5 16.5t-62.5 43.5q-53 61 -53 222v70h168v-82q0 -44 3 -70.5t11 -42.5q14 -29 51 -29q42 0 62 27q18 27 18 92v39q0 36 -18.5 72.5t-55.5 75.5l-143 149q-60 65 -78 105.5t-18 91.5v59q0 118 62.5 178t182.5 60q126 0 180 -63t54 -210v-49h-174v53
q0 89 -14 114q-12 26 -50 26q-33 0 -49 -25q-14 -25 -14 -80v-39q0 -23 18.5 -55.5t57.5 -75.5l147 -155q47 -50 70 -96q10 -22 16 -44t6 -45v-82q0 -127 -62 -190q-52 -52 -157 -61v-68h18q64 0 96.5 -29.5t32.5 -85.5q0 -57 -42.5 -90t-121.5 -33q-13 0 -26.5 0.5t-43 5.5
t-42 8.5t-39.5 12.5l20 65q25 -8 51.5 -12.5t34 -5t17.5 -0.5q32 0 50.5 14t18.5 37q0 22 -16 33.5t-47 11.5h-18l-13 -1v137z" />
    <glyph glyph-name="franc" unicode="&#x20a3;" horiz-adv-x="1044" 
d="M111 1475h440v-156h-250v-481h236v-156h-236v-682h-190v1475zM1049 1042v-157h-9q-93 0 -134 -42q-38 -43 -38 -149v-694h-180v1028h172l8 -84q33 51 73.5 75.5t84.5 24.5l11 -1z" />
    <glyph glyph-name="Gbreve" unicode="&#x11e;" horiz-adv-x="797" 
d="M694 1137v-70h-190v74q0 121 -23 164t-82 43q-55 0 -77.5 -44t-22.5 -163v-807q0 -122 24 -166q24 -41 87 -41l39 3q10 1 25 4t29 7l1 451h-103v151h293v-708q-78 -30 -150 -45t-143 -15q-162 0 -228.5 85.5t-66.5 310.5v733q0 221 64.5 307t220.5 86q168 0 235.5 -78.5
t67.5 -281.5zM200 1818h88q7 -42 31 -61q25 -17 80 -17q53 0 78 17.5t33 60.5h88v-22q0 -80 -52 -124t-147 -44t-147 45t-52 131v14z" />
    <glyph glyph-name="gbreve" unicode="&#x11f;" horiz-adv-x="696" 
d="M424 766q0 81 -17.5 114t-58.5 33q-42 0 -60 -32.5t-18 -114.5v-457q0 -85 17 -116t59 -31t60 33t18 114v457zM424 946l10 82h172v-1124q0 -171 -57.5 -239t-202.5 -68q-134 0 -196 64t-62 204v43h184v-41q0 -75 16.5 -107t53.5 -32q45 0 63.5 34.5t18.5 116.5v250
q-29 -51 -72 -80q-43 -26 -94 -26q-89 0 -129.5 57.5t-40.5 195.5v523q0 137 39.5 195.5t132.5 58.5q48 0 90.5 -27.5t73.5 -79.5zM149 1372h88q7 -42 31 -61q25 -17 80 -17q53 0 78 17.5t33 60.5h88v-22q0 -80 -52 -124t-147 -44t-147 45t-52 131v14z" />
    <glyph glyph-name="Idotaccent" unicode="&#x130;" horiz-adv-x="418" 
d="M113 1475h194v-1475h-194v1475zM131 1826h156v-188h-156v188z" />
    <glyph glyph-name="c274" unicode="&#x10e;" 
 />
    <glyph glyph-name="c275" unicode="&#x10f;" 
 />
    <glyph glyph-name="c276" unicode="&#x110;" 
 />
    <glyph glyph-name="Omega" unicode="&#x3a9;" horiz-adv-x="1573" 
d="M1473 156v-156h-590v150q190 110 296 279q51 84 77 177t26 197q0 252 -137 405.5t-359 153.5q-220 0 -358.5 -155t-138.5 -404q0 -204 102.5 -373t298.5 -280v-150h-590v156h332q-163 132 -242 284.5t-79 335.5q0 329 188.5 533t486.5 204q299 0 487.5 -202t188.5 -531
q0 -187 -79 -339.5t-242 -284.5h332z" />
    <glyph glyph-name="pi" unicode="&#x3c0;" horiz-adv-x="1186" 
d="M1139 930h-185l-110 -516l-22 -115l-7 -74q0 -56 24 -81t81 -25h16q9 0 16.5 0.5t13.5 1.5l52 8l-29 -129l-5 -1q-63 -15 -99 -15q-109 0 -167.5 51.5t-58.5 150.5q0 54 11 121t45 230l84 393h-348l-197 -930h-158l197 930h-39q-54 0 -83.5 -30t-41.5 -101h-145
q25 153 93.5 211.5t223.5 58.5h866z" />
    <glyph glyph-name="c279" unicode="&#x2015;" 
 />
    <glyph glyph-name="c280" unicode="&#x2016;" 
 />
    <glyph glyph-name="c281" unicode="&#x2017;" 
 />
    <glyph glyph-name="c282" unicode="&#x201b;" 
 />
    <glyph glyph-name="c283" unicode="&#x201f;" 
 />
    <glyph glyph-name="c284" unicode="&#x2023;" 
 />
    <glyph glyph-name="c285" unicode="&#x2024;" 
 />
    <glyph glyph-name="c286" unicode="&#x2025;" 
 />
    <glyph glyph-name="partialdiff" unicode="&#x2202;" horiz-adv-x="1044" 
d="M754 604q11 74 19 161q0 28 3.5 84t3.5 75q0 140 -39.5 216.5t-111.5 76.5q-53 0 -116.5 -63.5t-109.5 -63.5q-28 0 -51 21q-10 10 -16 23t-6 29q0 59 68 105.5t163 46.5q171 0 273 -152.5t102 -412.5q0 -335 -139 -555t-344 -220q-146 0 -241 107t-95 272
q0 188 108.5 315.5t266.5 127.5q100 0 162.5 -46.5t99.5 -146.5zM709 483q0 117 -45.5 180.5t-126.5 63.5q-112 0 -184 -127.5t-72 -333.5q0 -118 44 -178.5t128 -60.5q112 0 184 128.5t72 327.5z" />
    <glyph glyph-name="c288" unicode="&#x2203;" 
 />
    <glyph glyph-name="c289" unicode="&#x2204;" 
 />
    <glyph glyph-name="c290" unicode="&#x2205;" 
 />
    <glyph glyph-name="Delta" unicode="&#x2206;" horiz-adv-x="1356" 
d="M1122 158l-444 1138l-445 -1138h889zM780 1473l586 -1473h-1374l586 1473h202z" />
    <glyph glyph-name="product" unicode="&#x220f;" horiz-adv-x="1528" 
d="M160 1473h1208v-1866h-201v1693h-809v-1693h-198v1866z" />
    <glyph glyph-name="c293" unicode="&#x2210;" 
 />
    <glyph glyph-name="c294" unicode="&#x2211;" horiz-adv-x="1346" 
d="M51 1473h1239v-166h-989l690 -744l-719 -792h1035v-164h-1289v139l738 813l-705 758v156z" />
    <glyph glyph-name="c295" unicode="&#x2212;" horiz-adv-x="1706" 
d="M1452 670v-119h-1198v119h1198z" />
    <glyph glyph-name="c296" unicode="&#x2213;" 
 />
    <glyph glyph-name="c297" unicode="&#x2214;" 
 />
    <glyph glyph-name="c298" unicode="&#x2216;" 
 />
    <glyph glyph-name="c299" unicode="&#x2217;" 
 />
    <glyph glyph-name="c300" unicode="&#x2218;" 
 />
    <glyph glyph-name="radical" unicode="&#x221a;" horiz-adv-x="1288" 
d="M1288 1647v-82h-119l-594 -1606h-53l-323 893l-119 -43l-23 68l262 92l265 -729l522 1407h182z" />
    <glyph glyph-name="c302" unicode="&#x221b;" 
 />
    <glyph glyph-name="c303" unicode="&#x221c;" 
 />
    <glyph glyph-name="c304" unicode="&#x221d;" 
 />
    <glyph glyph-name="infinity" unicode="&#x221e;" horiz-adv-x="1706" 
d="M905 559q51 -95 119.5 -141.5t155.5 -46.5q103 0 169 71.5t66 180.5q0 108 -60.5 179.5t-152.5 71.5q-84 0 -152 -72t-145 -243zM803 666q-51 95 -119 142.5t-154 47.5q-106 0 -171.5 -71t-65.5 -183q0 -108 60.5 -179t152.5 -71q83 0 150.5 69t146.5 245zM840 727
q34 70 69.5 120.5t76.5 83.5q78 66 175 66q133 0 225.5 -109t92.5 -272q0 -171 -82 -277t-213 -106q-95 0 -167 59t-151 202q-70 -138 -147.5 -201.5t-173.5 -63.5q-133 0 -225.5 109t-92.5 272q0 171 82.5 277t214.5 106q95 0 171.5 -63.5t144.5 -202.5z" />
    <glyph glyph-name="integral" unicode="&#x222b;" horiz-adv-x="1020" 
d="M301 -268q116 0 116 664l5 216q0 245 27 423.5t75 295.5q90 217 281 217q74 0 122 -39q22 -19 34 -45t12 -59q0 -48 -31 -77.5t-82 -29.5q-53 0 -85 35t-32 92q0 7 -5.5 14.5t-14.5 8.5q-119 0 -119 -634l-6 -245q0 -141 -9 -255.5t-23 -205.5q-21 -156 -62 -247
q-47 -112 -122 -172t-169 -60q-73 0 -119.5 38t-46.5 97q0 53 32 84t83 31q47 0 79.5 -29t32.5 -67q0 -24 7 -37t20 -14z" />
    <glyph glyph-name="approxequal" unicode="&#x2248;" horiz-adv-x="1706" 
d="M1530 453q-107 -75 -202.5 -110.5t-186.5 -35.5q-97 0 -288.5 69.5t-289.5 69.5q-80 0 -167.5 -35t-217.5 -124v131q104 71 201 108t186 37q110 0 301.5 -68.5t276.5 -68.5t172.5 35.5t214.5 122.5v-131zM1530 803q-103 -72 -200 -108t-187 -36q-98 0 -288.5 69
t-291.5 69q-82 0 -172 -36q-42 -18 -96.5 -48.5t-116.5 -73.5v131q104 71 201 108t186 37q111 0 300.5 -68.5t277.5 -68.5q46 0 87.5 8t87.5 27q86 34 212 121v-131z" />
    <glyph glyph-name="notequal" unicode="&#x2260;" horiz-adv-x="1706" 
d="M1298 1110l-196 -250h350v-115h-424l-211 -270h635v-115h-709l-251 -319l-89 70l197 249h-346v115h420l211 270h-631v115h704l252 320z" />
    <glyph glyph-name="c309" unicode="&#x2261;" 
 />
    <glyph glyph-name="c310" unicode="&#x2262;" 
 />
    <glyph glyph-name="c311" unicode="&#x2263;" 
 />
    <glyph glyph-name="lessequal" unicode="&#x2264;" horiz-adv-x="1706" 
d="M1444 150v-117h-1182v117h1182zM1444 1067l-977 -324l977 -323v-125l-1182 399v101l1182 397v-125z" />
    <glyph glyph-name="greaterequal" unicode="&#x2265;" horiz-adv-x="1706" 
d="M1444 150v-117h-1182v117h1182zM1444 795v-101l-1182 -399v125l979 323l-979 324v125z" />
    <glyph glyph-name="lozenge" unicode="&#x25ca;" horiz-adv-x="1012" 
d="M506 1409l-385 -817l385 -825l385 825zM506 1653l500 -1061l-500 -1069l-500 1069z" />
    <glyph glyph-name="apple" unicode="&#xf000;" horiz-adv-x="1618" 
d="M836 1216l-2 14v23q0 124 95 229t236 132l1 -23l1 -39q0 -131 -103.5 -234.5t-203.5 -103.5h-8l-8 1zM1505 403q-114 -246 -204.5 -342t-204.5 -96q-49 0 -131 33t-123 33q-44 0 -130.5 -33t-127.5 -33q-64 0 -128 44t-130 132q-100 137 -158 295q-27 78 -41 153t-14 148
q0 219 125 356.5t323 137.5q68 0 156.5 -34t122.5 -34q18 0 46 8t75 27q88 35 153 35q111 0 197.5 -39.5t161.5 -124.5q-101 -64 -151 -145.5t-50 -182.5q0 -111 60 -199.5t173 -138.5z" />
    </font>
</defs>
</svg>
